<?xml version="1.0" encoding="UTF-8" standalone="no"?>
<!-- Created with Inkscape (http://www.inkscape.org/) -->

<svg
   xmlns:dc="http://purl.org/dc/elements/1.1/"
   xmlns:cc="http://creativecommons.org/ns#"
   xmlns:rdf="http://www.w3.org/1999/02/22-rdf-syntax-ns#"
   xmlns:svg="http://www.w3.org/2000/svg"
   xmlns="http://www.w3.org/2000/svg"
   xmlns:sodipodi="http://sodipodi.sourceforge.net/DTD/sodipodi-0.dtd"
   xmlns:inkscape="http://www.inkscape.org/namespaces/inkscape"
   width="700"
   height="500"
   viewBox="0 0 700 500"
   id="svg2"
   version="1.1"
   inkscape:version="0.91 r"
   sodipodi:docname="title.svg">
  <defs
     id="defs4" />
  <sodipodi:namedview
     id="base"
     pagecolor="#ffffff"
     bordercolor="#666666"
     borderopacity="1.0"
     inkscape:pageopacity="0.0"
     inkscape:pageshadow="2"
     inkscape:zoom="1"
     inkscape:cx="345.22828"
     inkscape:cy="276.16934"
     inkscape:document-units="px"
     inkscape:current-layer="layer1"
     showgrid="true"
     units="px"
     inkscape:snap-bbox="true"
     inkscape:bbox-paths="true"
     inkscape:bbox-nodes="true"
     inkscape:object-paths="true"
     inkscape:snap-intersection-paths="true"
     inkscape:object-nodes="true"
     inkscape:window-width="1680"
     inkscape:window-height="1026"
     inkscape:window-x="0"
     inkscape:window-y="24"
     inkscape:window-maximized="1">
    <inkscape:grid
       type="xygrid"
       id="grid4136" />
  </sodipodi:namedview>
  <metadata
     id="metadata7">
    <rdf:RDF>
      <cc:Work
         rdf:about="">
        <dc:format>image/svg+xml</dc:format>
        <dc:type
           rdf:resource="http://purl.org/dc/dcmitype/StillImage" />
        <dc:title></dc:title>
      </cc:Work>
    </rdf:RDF>
  </metadata>
  <g
     inkscape:label="Layer 1"
     inkscape:groupmode="layer"
     id="layer1"
     transform="translate(0,-552.36219)">
    <path
       style="opacity:1;fill:#000000;fill-opacity:1;fill-rule:nonzero;stroke:none;stroke-width:2.5;stroke-linecap:round;stroke-linejoin:bevel;stroke-miterlimit:4;stroke-dasharray:none;stroke-opacity:1"
       d="m 327.70312,894.85047 0,4.82227 c 1.63218,0 3.03143,0.11929 4.19727,0.35742 0.64121,0.11906 1.23919,0.32734 1.79297,0.625 0.55377,0.29766 1.06296,0.6839 1.5293,1.16015 0.52462,0.47626 1.03576,1.08789 1.53125,1.83204 0.49548,0.74414 0.97507,1.62077 1.4414,2.63281 1.04926,2.02407 2.27482,4.82264 3.67383,8.39453 l 25.53125,67.6875 1.92383,0 26.92969,-67.86523 c 1.16584,-3.03611 2.25918,-5.55257 3.27929,-7.54688 1.02011,-1.99431 1.96742,-3.46742 2.8418,-4.41992 0.87438,-0.95251 1.96773,-1.66633 3.2793,-2.14258 1.31157,-0.47625 2.84108,-0.71484 4.58984,-0.71484 l 0,-4.82227 c -2.9146,0.23813 -6.99395,0.41609 -12.24023,0.53516 -5.24629,0 -9.96899,-0.17797 -14.16602,-0.53516 l 0,5 c 2.9146,0 5.17431,0.22344 6.77734,0.66992 0.80152,0.22325 1.43849,0.50303 1.91211,0.83789 0.47363,0.33487 0.78396,0.72539 0.92969,1.17188 0.17488,0.44649 0.25038,1.03013 0.22852,1.75195 -0.0219,0.72182 -0.14078,1.58293 -0.35938,2.58008 -0.43719,1.99431 -1.26805,4.53912 -2.49219,7.63477 l -19.76171,49.82812 -18.01172,-49.65039 c -1.22414,-3.21471 -1.9958,-5.8485 -2.31641,-7.90234 -0.1603,-1.02692 -0.20816,-1.90978 -0.14258,-2.64649 0.0656,-0.7367 0.2437,-1.32695 0.53516,-1.77344 0.3206,-0.44648 0.77946,-0.83701 1.37695,-1.17187 0.5975,-0.33487 1.33265,-0.61465 2.20703,-0.83789 1.74876,-0.44649 4.0519,-0.66992 6.90821,-0.66992 l 0,-4.82227 c -1.74877,0.23813 -4.19598,0.41609 -7.34375,0.53516 l -9.96875,0 -9.79297,0 c -3.03119,-0.11907 -5.30472,-0.29703 -6.82032,-0.53516 z"
       id="path4209"
       inkscape:connector-curvature="0" />
    <path
       style="opacity:1;fill:#554e44;fill-opacity:1;fill-rule:nonzero;stroke:none;stroke-width:2.5;stroke-linecap:round;stroke-linejoin:bevel;stroke-miterlimit:4;stroke-dasharray:none;stroke-opacity:1"
       d="m 327.70312,894.85047 c 1.5156,0.23813 3.78913,0.41609 6.82032,0.53516 l 9.79297,0 9.96875,0 c 3.14777,-0.11907 5.59498,-0.29703 7.34375,-0.53516 l 0,4.82227 c -2.85631,0 -5.15945,0.22343 -6.90821,0.66992 -0.87438,0.22324 -1.60953,0.50302 -2.20703,0.83789 -0.59749,0.33486 -1.05635,0.72539 -1.37695,1.17187 -0.29146,0.44649 -0.46958,1.03674 -0.53516,1.77344 -0.0656,0.73671 -0.0178,1.61957 0.14258,2.64649 0.32061,2.05384 1.09227,4.68763 2.31641,7.90234 l 18.01172,49.65039 19.76171,-49.82812 c 1.22414,-3.09565 2.055,-5.64046 2.49219,-7.63477 0.2186,-0.99715 0.33752,-1.85826 0.35938,-2.58008 0.0219,-0.72182 -0.0537,-1.30546 -0.22852,-1.75195 -0.14573,-0.44649 -0.45606,-0.83701 -0.92969,-1.17188 -0.47362,-0.33486 -1.11059,-0.61464 -1.91211,-0.83789 -1.60303,-0.44648 -3.86274,-0.66992 -6.77734,-0.66992 l 0,-5 c 4.19703,0.35719 8.91973,0.53516 14.16602,0.53516 5.24628,-0.11907 9.32563,-0.29703 12.24023,-0.53516 l 0,4.82227 c -1.74876,0 -3.27827,0.23859 -4.58984,0.71484 -1.31157,0.47625 -2.40492,1.19007 -3.2793,2.14258 -0.87438,0.9525 -1.82169,2.42561 -2.8418,4.41992 -1.02011,1.99431 -2.11345,4.51077 -3.27929,7.54688 l -26.92969,67.86523 -1.92383,0 -25.53125,-67.6875 c -1.39901,-3.57189 -2.62457,-6.37046 -3.67383,-8.39453 -0.46633,-1.01204 -0.94592,-1.88867 -1.4414,-2.63281 -0.49549,-0.74415 -1.00663,-1.35578 -1.53125,-1.83204 -0.46634,-0.47625 -0.97553,-0.86249 -1.5293,-1.16015 -0.55378,-0.29766 -1.15176,-0.50594 -1.79297,-0.625 -1.16584,-0.23813 -2.56509,-0.35742 -4.19727,-0.35742 l 0,-4.82227 z"
       id="path4207"
       inkscape:connector-curvature="0" />
    <path
       style="opacity:1;fill:#554e44;fill-opacity:1;fill-rule:nonzero;stroke:none;stroke-width:2.5;stroke-linecap:round;stroke-linejoin:bevel;stroke-miterlimit:4;stroke-dasharray:none;stroke-opacity:1"
       d="m 281.71094,892.35047 c -1.34072,1.25016 -2.73997,2.33703 -4.19727,3.25977 -1.4573,0.92274 -2.97299,1.68202 -4.54687,2.27734 -1.5156,0.59532 -3.11813,1.11601 -4.8086,1.5625 -1.69047,0.44649 -3.46864,0.81758 -5.33398,1.11523 l 0,3.75 c 2.44826,1e-5 4.37247,0.17992 5.77148,0.53711 0.69951,0.1786 1.31131,0.44555 1.83594,0.80274 0.52463,0.35719 0.9608,0.80406 1.31055,1.33984 0.34975,0.53579 0.64183,1.17578 0.875,1.91992 0.23317,0.74415 0.4088,1.59242 0.52539,2.54493 0.23317,1.90501 0.34961,4.46498 0.34961,7.67968 l 0,41.97071 c 0,3.03611 -0.21906,5.50514 -0.65625,7.41015 -0.2186,0.95251 -0.49242,1.76387 -0.82032,2.4336 -0.32789,0.66973 -0.70929,1.19898 -1.14648,1.58593 -0.43719,0.38696 -1.00557,0.72541 -1.70508,1.01563 -0.6995,0.29022 -1.53037,0.53113 -2.49218,0.72461 -1.92364,0.38695 -4.37281,0.58008 -7.34571,0.58008 l 0,4.46679 c 2.68144,-0.11906 6.00489,-0.17968 9.96875,-0.17968 3.96386,-0.11907 8.04321,-0.17774 12.24024,-0.17774 4.19702,0 8.27832,0.0586 12.24218,0.17774 3.96386,0 7.28732,0.0606 9.96875,0.17968 l 0,-4.46679 c -4.31361,0 -7.75351,-0.17797 -10.31836,-0.53516 -1.28242,-0.17859 -2.41919,-0.43039 -3.41015,-0.75781 -0.99097,-0.32743 -1.83565,-0.73078 -2.53516,-1.20703 -0.6995,-0.47626 -1.28366,-1.05562 -1.75,-1.74024 -0.46633,-0.68461 -0.81566,-1.47421 -1.04883,-2.36719 -0.34975,-1.90501 -0.52539,-4.28506 -0.52539,-7.14257 l 0,-37.86328 c 0,-1.1311 0.16182,-2.24633 0.48242,-3.34766 0.32061,-1.10133 0.8002,-2.1882 1.44141,-3.25977 0.64121,-1.1311 1.35564,-2.18765 2.14258,-3.16992 0.78694,-0.98227 1.6474,-1.89117 2.58008,-2.72461 1.74876,-1.66688 3.55653,-3.03585 5.42187,-4.10742 0.93268,-0.53578 1.76159,-0.93719 2.49024,-1.20508 0.72865,-0.26789 1.35623,-0.40234 1.88086,-0.40234 1.63217,0 2.91498,0.23859 3.84765,0.71484 1.04926,0.47626 1.98079,1.01211 2.79688,1.60742 0.81609,0.59532 1.63313,1.13117 2.44922,1.60743 0.81608,0.35719 1.92325,0.53515 3.32226,0.53515 0.7578,0 1.52947,-0.17796 2.31641,-0.53515 0.78694,-0.35719 1.59016,-0.89305 2.40625,-1.60743 0.87438,-0.77391 1.5296,-1.71116 1.96679,-2.8125 0.4372,-1.10133 0.65626,-2.36616 0.65626,-3.79492 0,-1.30969 -0.26249,-2.47038 -0.78711,-3.48242 -0.52463,-1.01204 -1.31208,-1.87546 -2.36133,-2.58984 -1.04926,-0.77391 -2.18603,-1.35524 -3.41016,-1.74219 -1.22413,-0.38696 -2.53654,-0.58008 -3.93555,-0.58008 -0.99096,0 -2.01129,0.14961 -3.06054,0.44727 -1.04926,0.29765 -2.12683,0.74257 -3.23438,1.33789 -2.2151,1.07157 -4.48863,2.50116 -6.82031,4.28711 -2.2151,1.90501 -4.42943,4.04842 -6.64453,6.42968 -2.2151,2.2622 -4.19851,4.58359 -5.94727,6.96485 l 0,-9.46485 c 0.11659,-3.45283 0.35142,-6.78724 0.70118,-10.00195 l -3.14844,0 z"
       id="path4205"
       inkscape:connector-curvature="0" />
    <path
       style="opacity:1;fill:#554e44;fill-opacity:1;fill-rule:nonzero;stroke:none;stroke-width:2.5;stroke-linecap:round;stroke-linejoin:bevel;stroke-miterlimit:4;stroke-dasharray:none;stroke-opacity:1"
       d="m 556.79102,892.17274 c -1.39901,0 -2.81208,0.11074 -4.24024,0.33398 -1.42815,0.22324 -2.87082,0.55742 -4.32812,1.00391 -1.4573,0.44648 -2.92957,1.00605 -4.41602,1.67578 -1.48645,0.66973 -2.98831,1.45078 -4.50391,2.34375 -3.03118,1.78595 -5.95994,3.61694 -8.78711,5.49219 -2.82716,1.87524 -5.55263,3.79522 -8.17578,5.75976 l 0,-6.9668 c 0.11659,-3.09564 0.34947,-6.25013 0.69922,-9.46484 l -3.32226,0 c -1.28243,1.25016 -2.63631,2.33703 -4.06446,3.25977 -1.42815,0.92274 -2.93002,1.68202 -4.5039,2.27734 -1.5156,0.59532 -3.11813,1.11601 -4.8086,1.5625 -1.69047,0.44649 -3.46864,0.81758 -5.33398,1.11523 l 0,3.75 c 2.44827,1e-5 4.37247,0.17992 5.77148,0.53711 0.69951,0.1786 1.31131,0.44555 1.83594,0.80274 0.52463,0.35719 0.9608,0.80406 1.31055,1.33984 0.34975,0.53579 0.62801,1.17578 0.83203,1.91992 0.20402,0.74415 0.33429,1.59242 0.39258,2.54493 0.23317,1.90501 0.34961,4.46498 0.34961,7.67968 l 0,41.97071 c 0,2.50032 -0.20329,4.64178 -0.61133,6.42773 -0.40805,1.78595 -1.01985,3.21554 -1.83594,4.28711 -0.3789,0.50602 -0.87178,0.94861 -1.47656,1.32813 -0.60478,0.37951 -1.32168,0.69621 -2.15234,0.94921 -1.66133,0.50602 -3.775,0.75782 -6.33985,0.75782 l 0,4.46679 4.54688,0 c 1.51559,-0.11906 3.03128,-0.17968 4.54687,-0.17968 l 4.19727,0 c 1.51559,-0.11907 3.14772,-0.17774 4.89648,-0.17774 1.63218,0 3.14787,0.0586 4.54688,0.17774 l 4.37109,0 c 1.39901,0.11906 2.79826,0.17968 4.19727,0.17968 l 4.7207,0 0,-4.46679 c -2.62314,0 -4.79406,-0.2518 -6.51367,-0.75782 -0.85981,-0.253 -1.60631,-0.5697 -2.24024,-0.94921 -0.63392,-0.37952 -1.15445,-0.82211 -1.5625,-1.32813 -0.81609,-1.07157 -1.42789,-2.50116 -1.83594,-4.28711 -0.40804,-1.78595 -0.61328,-3.92741 -0.61328,-6.42773 l 0,-46.97071 c 1.63218,-1.42875 3.55639,-2.85835 5.77149,-4.28711 2.33168,-1.42875 4.72165,-2.73905 7.16992,-3.92968 2.33168,-1.07157 4.66246,-1.96336 6.99414,-2.67774 2.33168,-0.83344 4.37233,-1.31062 6.12109,-1.42969 1.54474,0 2.9805,0.0824 4.30664,0.2461 1.32615,0.16371 2.54285,0.4089 3.6504,0.73633 1.10754,0.32742 2.10518,0.73738 2.99414,1.22851 0.88895,0.49114 1.66948,1.06391 2.33983,1.71875 0.67037,0.65485 1.257,1.41414 1.75978,2.27735 0.50276,0.8632 0.92263,1.83077 1.25781,2.90233 0.33518,1.07158 0.58631,2.24742 0.7539,3.52735 0.16759,1.27993 0.25,2.66406 0.25,4.15235 l 0,42.50586 c 0,2.50032 -0.20328,4.64178 -0.61132,6.42773 -0.40805,1.78595 -1.01985,3.21554 -1.83594,4.28711 -0.40805,0.50602 -0.92166,0.94861 -1.54102,1.32813 -0.61935,0.37951 -1.34512,0.69621 -2.17578,0.94921 -1.66132,0.50602 -3.74539,0.75782 -6.25195,0.75782 l 0,4.46679 4.54687,0 c 1.5156,-0.11906 2.97404,-0.17968 4.37305,-0.17968 l 4.19727,0 c 1.51559,-0.11907 3.14772,-0.17774 4.89648,-0.17774 1.63218,0 3.14591,0.0586 4.54492,0.17774 l 4.37305,0 c 1.39901,0.11906 2.79826,0.17968 4.19727,0.17968 l 4.7207,0 0,-4.46679 c -2.62314,0 -4.79406,-0.2518 -6.51367,-0.75782 -0.85981,-0.253 -1.60631,-0.5697 -2.24024,-0.94921 -0.63392,-0.37952 -1.15445,-0.82211 -1.5625,-1.32813 -0.81609,-1.07157 -1.42984,-2.50116 -1.83789,-4.28711 -0.40804,-1.78595 -0.61133,-3.92741 -0.61133,-6.42773 l 0,-42.32813 c 0,-1.84548 -0.0937,-3.62013 -0.2832,-5.32422 -0.18945,-1.70409 -0.47462,-3.33768 -0.85352,-4.90039 -0.37889,-1.5627 -0.85157,-3.05524 -1.41992,-4.47656 -0.56834,-1.42132 -1.23244,-2.77085 -1.99023,-4.05078 -0.7578,-1.3097 -1.639,-2.45523 -2.64453,-3.4375 -1.00554,-0.98227 -2.1354,-1.80219 -3.38867,-2.45703 -1.25328,-0.65485 -2.62984,-1.14524 -4.13086,-1.47266 -1.50102,-0.32742 -3.12624,-0.49023 -4.875,-0.49023 z"
       id="path4203"
       inkscape:connector-curvature="0" />
    <path
       style="opacity:1;fill:#554e44;fill-opacity:1;fill-rule:nonzero;stroke:none;stroke-width:2.5;stroke-linecap:round;stroke-linejoin:bevel;stroke-miterlimit:4;stroke-dasharray:none;stroke-opacity:1"
       d="m 457.11133,892.17274 c -2.50656,0 -4.93996,0.26695 -7.30078,0.80273 -2.36083,0.53579 -4.64819,1.33859 -6.86328,2.41016 -2.15681,1.07157 -4.18364,2.39702 -6.07813,3.97461 -1.89449,1.57758 -3.65688,3.40858 -5.28906,5.49218 -1.57389,2.02408 -2.98696,4.28679 -4.24024,6.78711 -1.25328,2.50033 -2.34662,5.23827 -3.27929,8.21485 -0.93268,2.97658 -1.63328,6.14623 -2.09961,9.50976 -0.46634,3.36354 -0.69922,6.92139 -0.69922,10.67188 0,3.03611 0.21906,5.95201 0.65625,8.75 0.43719,2.79798 1.09241,5.47725 1.9668,8.03711 0.93267,2.55986 2.02601,4.95506 3.27929,7.1875 1.25328,2.23243 2.66635,4.30202 4.24024,6.20703 1.57388,1.90501 3.27903,3.60155 5.11523,5.08984 1.8362,1.48829 3.80383,2.76828 5.90235,3.83985 2.1568,1.07156 4.40074,1.87632 6.73242,2.41211 2.33168,0.53578 4.75125,0.80273 7.25781,0.80273 1.71961,0 3.39517,-0.12357 5.02734,-0.36914 1.63218,-0.24557 3.22089,-0.61238 4.76563,-1.10352 1.54474,-0.49113 3.0466,-1.10509 4.5039,-1.84179 1.45731,-0.73671 2.87038,-1.59781 4.24024,-2.58008 1.39901,-1.01204 2.72524,-2.08179 3.97851,-3.21289 1.25328,-1.1311 2.43347,-2.3221 3.54102,-3.57227 1.10755,-1.25016 2.1417,-2.56046 3.10352,-3.92969 0.96181,-1.36922 1.85188,-2.79881 2.66796,-4.2871 l -2.44921,-1.60743 c -1.39901,1.72642 -2.98772,3.32078 -4.76563,4.7793 -1.77791,1.45852 -3.74554,2.78203 -5.90234,3.97266 -1.04926,0.56555 -2.14952,1.06021 -3.30078,1.48437 -1.15127,0.42416 -2.35219,0.77777 -3.60547,1.06055 -2.50656,0.56555 -5.21821,0.84765 -8.13282,0.84765 -2.12766,0 -4.14119,-0.18884 -6.04296,-0.56835 -1.90178,-0.37952 -3.6913,-0.94801 -5.36719,-1.70704 -1.6759,-0.75902 -3.23944,-1.70911 -4.68945,-2.84765 -1.45002,-1.13854 -2.78564,-2.46632 -4.00977,-3.98438 -1.22413,-1.54782 -2.315,-3.18569 -3.26953,-4.91211 -0.95453,-1.72641 -1.77405,-3.54225 -2.45899,-5.44726 -0.68493,-1.90501 -1.23506,-3.89882 -1.65039,-5.98242 -0.41533,-2.08361 -0.69606,-4.25538 -0.84179,-6.51758 -0.23317,-3.21471 -0.34961,-5.8353 -0.34961,-7.85938 0,-2.02407 0.17564,-3.92889 0.52539,-5.71484 l 51.58789,0 c 0.6995,-0.11906 1.26789,-0.28187 1.70508,-0.49023 0.43719,-0.20837 0.74309,-0.46211 0.91796,-0.75977 0.34976,-0.71438 0.5254,-1.78609 0.5254,-3.21484 -0.0583,-2.55986 -0.32078,-4.94187 -0.78711,-7.14454 -0.46634,-2.20266 -1.13734,-4.22483 -2.01172,-6.07031 -0.87438,-1.90501 -1.87893,-3.64702 -3.01563,-5.22461 -1.13669,-1.57758 -2.40568,-2.99202 -3.80468,-4.24219 -1.39901,-1.19063 -2.8851,-2.23202 -4.45899,-3.125 -1.57388,-0.89297 -3.23561,-1.6371 -4.98437,-2.23241 -1.74877,-0.59532 -3.49734,-1.04219 -5.2461,-1.33985 -1.74876,-0.29766 -3.49733,-0.44531 -5.24609,-0.44531 z m -0.69922,5.71484 c 1.51559,0 2.94444,0.14766 4.28516,0.44531 1.34071,0.29766 2.59392,0.74453 3.75976,1.33985 1.16584,0.59531 2.24341,1.26562 3.23438,2.00976 0.99096,0.74415 1.89485,1.56211 2.71093,2.45508 0.7578,0.89297 1.4288,1.83023 2.01172,2.8125 0.58292,0.98227 1.07829,2.01046 1.48633,3.08203 0.46634,1.07157 0.81566,2.11297 1.04883,3.125 0.23317,1.01204 0.34961,1.99476 0.34961,2.94727 0,0.89297 -0.11644,1.65031 -0.34961,2.27539 -0.23317,0.62508 -0.58249,1.11742 -1.04883,1.47461 -0.46634,0.29766 -1.07814,0.52109 -1.83594,0.66992 -0.75779,0.14883 -1.66168,0.22266 -2.71093,0.22266 l -36.9004,0 c 0.32061,-1.69665 0.72665,-3.31082 1.21485,-4.84375 0.48819,-1.53294 1.05906,-2.98429 1.71484,-4.35352 0.65579,-1.36923 1.39538,-2.65777 2.21875,-3.86328 0.82338,-1.20552 1.73169,-2.32929 2.72266,-3.3711 1.02011,-1.07156 2.12037,-2.00882 3.30078,-2.8125 1.18041,-0.80367 2.44053,-1.47202 3.78125,-2.00781 1.34072,-0.53578 2.7607,-0.93914 4.26172,-1.20703 1.50102,-0.26789 3.08282,-0.40039 4.74414,-0.40039 z"
       id="path4199"
       inkscape:connector-curvature="0" />
    <path
       style="opacity:1;fill:#554e44;fill-opacity:1;fill-rule:nonzero;stroke:none;stroke-width:2.5;stroke-linecap:round;stroke-linejoin:bevel;stroke-miterlimit:4;stroke-dasharray:none;stroke-opacity:1"
       d="m 217.88086,892.17274 c -2.50656,0 -4.93995,0.26695 -7.30078,0.80273 -2.36083,0.53579 -4.64819,1.33859 -6.86328,2.41016 -2.15681,1.07157 -4.18364,2.39702 -6.07813,3.97461 -1.89449,1.57758 -3.65688,3.40858 -5.28906,5.49218 -1.57389,2.02408 -2.98696,4.28679 -4.24023,6.78711 -1.25328,2.50033 -2.34663,5.23827 -3.2793,8.21485 -0.93267,2.97658 -1.63327,6.14623 -2.09961,9.50976 -0.46634,3.36354 -0.69922,6.92139 -0.69922,10.67188 0,3.03611 0.21906,5.95201 0.65625,8.75 0.43719,2.79798 1.09242,5.47725 1.9668,8.03711 0.93267,2.55986 2.02601,4.95506 3.27929,7.1875 1.25328,2.23243 2.66635,4.30202 4.24024,6.20703 1.57388,1.90501 3.27903,3.60155 5.11523,5.08984 1.8362,1.48829 3.80383,2.76828 5.90235,3.83985 2.1568,1.07156 4.40074,1.87632 6.73242,2.41211 2.33168,0.53578 4.75125,0.80273 7.25781,0.80273 1.71962,0 3.39517,-0.12357 5.02734,-0.36914 1.63218,-0.24557 3.22089,-0.61238 4.76563,-1.10352 1.54474,-0.49113 3.0466,-1.10509 4.50391,-1.84179 1.4573,-0.73671 2.87037,-1.59781 4.24023,-2.58008 1.39901,-1.01204 2.72524,-2.08179 3.97852,-3.21289 1.25327,-1.1311 2.43346,-2.3221 3.54101,-3.57227 1.10755,-1.25016 2.1417,-2.56046 3.10352,-3.92969 0.96182,-1.36922 1.85188,-2.79881 2.66797,-4.2871 l -2.44922,-1.60743 c -1.39901,1.72642 -2.98772,3.32078 -4.76563,4.7793 -1.77791,1.45852 -3.74554,2.78203 -5.90234,3.97266 -1.04926,0.56555 -2.14952,1.06021 -3.30078,1.48437 -1.15127,0.42416 -2.35219,0.77777 -3.60547,1.06055 -2.50656,0.56555 -5.21821,0.84765 -8.13281,0.84765 -2.12766,0 -4.1412,-0.18884 -6.04297,-0.56835 -1.90178,-0.37952 -3.69129,-0.94801 -5.36719,-1.70704 -1.6759,-0.75902 -3.23944,-1.70911 -4.68945,-2.84765 -1.45002,-1.13854 -2.78564,-2.46632 -4.00977,-3.98438 -1.22413,-1.54782 -2.315,-3.18569 -3.26953,-4.91211 -0.95453,-1.72641 -1.77405,-3.54225 -2.45899,-5.44726 -0.68493,-1.90501 -1.23505,-3.89882 -1.65039,-5.98242 -0.41533,-2.08361 -0.69606,-4.25538 -0.84179,-6.51758 -0.23317,-3.21471 -0.34961,-5.8353 -0.34961,-7.85938 0,-2.02407 0.17564,-3.92889 0.52539,-5.71484 l 51.58789,0 c 0.6995,-0.11906 1.26789,-0.28187 1.70508,-0.49023 0.43719,-0.20837 0.74309,-0.46211 0.91797,-0.75977 0.34975,-0.71438 0.52539,-1.78609 0.52539,-3.21484 -0.0583,-2.55986 -0.32078,-4.94187 -0.78711,-7.14454 -0.46634,-2.20266 -1.13734,-4.22483 -2.01172,-6.07031 -0.87438,-1.90501 -1.87893,-3.64702 -3.01563,-5.22461 -1.13669,-1.57758 -2.40567,-2.99202 -3.80468,-4.24219 -1.39901,-1.19063 -2.8851,-2.23202 -4.45899,-3.125 -1.57388,-0.89297 -3.23561,-1.6371 -4.98437,-2.23241 -1.74876,-0.59532 -3.49734,-1.04219 -5.2461,-1.33985 -1.74876,-0.29766 -3.49733,-0.44531 -5.24609,-0.44531 z m -0.69922,5.71484 c 1.51559,0 2.94444,0.14766 4.28516,0.44531 1.34071,0.29766 2.59392,0.74453 3.75976,1.33985 1.16584,0.59531 2.24341,1.26562 3.23438,2.00976 0.99096,0.74415 1.89485,1.56211 2.71094,2.45508 0.75779,0.89297 1.42879,1.83023 2.01171,2.8125 0.58292,0.98227 1.07829,2.01046 1.48633,3.08203 0.46634,1.07157 0.81566,2.11297 1.04883,3.125 0.23317,1.01204 0.34961,1.99476 0.34961,2.94727 0,0.89297 -0.11644,1.65031 -0.34961,2.27539 -0.23317,0.62508 -0.58249,1.11742 -1.04883,1.47461 -0.46633,0.29766 -1.08009,0.52109 -1.83789,0.66992 -0.7578,0.14883 -1.65973,0.22266 -2.70898,0.22266 l -36.90039,0 c 0.3206,-1.69665 0.72664,-3.31082 1.21484,-4.84375 0.4882,-1.53294 1.05906,-2.98429 1.71484,-4.35352 0.65579,-1.36923 1.39538,-2.65777 2.21875,-3.86328 0.82338,-1.20552 1.7317,-2.32929 2.72266,-3.3711 1.02011,-1.07156 2.12037,-2.00882 3.30078,-2.8125 1.18042,-0.80367 2.44053,-1.47202 3.78125,-2.00781 1.34072,-0.53578 2.7607,-0.93914 4.26172,-1.20703 1.50102,-0.26789 3.08282,-0.40039 4.74414,-0.40039 z"
       id="path4197"
       inkscape:connector-curvature="0" />
    <path
       style="opacity:1;fill:none;fill-opacity:1;fill-rule:nonzero;stroke:none;stroke-width:2.5;stroke-linecap:round;stroke-linejoin:bevel;stroke-miterlimit:4;stroke-dasharray:none;stroke-opacity:1"
       d="m 217.88086,892.17274 c 1.74876,0 3.49733,0.14765 5.24609,0.44531 1.74876,0.29766 3.49734,0.74453 5.2461,1.33985 1.74876,0.59531 3.41049,1.33944 4.98437,2.23241 1.57389,0.89298 3.05998,1.93437 4.45899,3.125 1.39901,1.25017 2.66799,2.66461 3.80468,4.24219 1.1367,1.57759 2.14125,3.3196 3.01563,5.22461 0.87438,1.84548 1.54538,3.86765 2.01172,6.07031 0.46633,2.20267 0.72881,4.58468 0.78711,7.14454 0,1.42875 -0.17564,2.50046 -0.52539,3.21484 -0.17488,0.29766 -0.48078,0.5514 -0.91797,0.75977 -0.43719,0.20836 -1.00558,0.37117 -1.70508,0.49023 l -51.58789,0 c -0.34975,1.78595 -0.52539,3.69077 -0.52539,5.71484 0,2.02408 0.11644,4.64467 0.34961,7.85938 0.14573,2.2622 0.42646,4.43397 0.84179,6.51758 0.41534,2.0836 0.96546,4.07741 1.65039,5.98242 0.68494,1.90501 1.50446,3.72085 2.45899,5.44726 0.95453,1.72642 2.0454,3.36429 3.26953,4.91211 1.22413,1.51806 2.55975,2.84584 4.00977,3.98438 1.45001,1.13854 3.01355,2.08863 4.68945,2.84765 1.6759,0.75903 3.46541,1.32752 5.36719,1.70704 1.90177,0.37951 3.91531,0.56835 6.04297,0.56835 2.9146,0 5.62625,-0.2821 8.13281,-0.84765 1.25328,-0.28278 2.4542,-0.63639 3.60547,-1.06055 1.15126,-0.42416 2.25152,-0.91882 3.30078,-1.48437 2.1568,-1.19063 4.12443,-2.51414 5.90234,-3.97266 1.77791,-1.45852 3.36662,-3.05288 4.76563,-4.7793 l 2.44922,1.60743 c -0.81609,1.48829 -1.70615,2.91788 -2.66797,4.2871 -0.96182,1.36923 -1.99597,2.67953 -3.10352,3.92969 -1.10755,1.25017 -2.28774,2.44117 -3.54101,3.57227 -1.25328,1.1311 -2.57951,2.20085 -3.97852,3.21289 -1.36986,0.98227 -2.78293,1.84337 -4.24023,2.58008 -1.45731,0.7367 -2.95917,1.35066 -4.50391,1.84179 -1.54474,0.49114 -3.13345,0.85795 -4.76563,1.10352 -1.63217,0.24557 -3.30772,0.36914 -5.02734,0.36914 -2.50656,0 -4.92613,-0.26695 -7.25781,-0.80273 -2.33168,-0.53579 -4.57562,-1.34055 -6.73242,-2.41211 -2.09852,-1.07157 -4.06615,-2.35156 -5.90235,-3.83985 -1.8362,-1.48829 -3.54135,-3.18483 -5.11523,-5.08984 -1.57389,-1.90501 -2.98696,-3.9746 -4.24024,-6.20703 -1.25328,-2.23244 -2.34662,-4.62764 -3.27929,-7.1875 -0.87438,-2.55986 -1.52961,-5.23913 -1.9668,-8.03711 -0.43719,-2.79799 -0.65625,-5.71389 -0.65625,-8.75 0,-3.75049 0.23288,-7.30834 0.69922,-10.67188 0.46634,-3.36353 1.16694,-6.53318 2.09961,-9.50976 0.93267,-2.97658 2.02602,-5.71452 3.2793,-8.21485 1.25327,-2.50032 2.66634,-4.76303 4.24023,-6.78711 1.63218,-2.0836 3.39457,-3.9146 5.28906,-5.49218 1.89449,-1.57759 3.92132,-2.90304 6.07813,-3.97461 2.21509,-1.07157 4.50245,-1.87437 6.86328,-2.41016 2.36083,-0.53578 4.79422,-0.80273 7.30078,-0.80273 z m 239.23047,0 c 1.74876,0 3.49733,0.14765 5.24609,0.44531 1.74876,0.29766 3.49733,0.74453 5.2461,1.33985 1.74876,0.59531 3.41049,1.33944 4.98437,2.23241 1.57389,0.89298 3.05998,1.93437 4.45899,3.125 1.399,1.25017 2.66799,2.66461 3.80468,4.24219 1.1367,1.57759 2.14125,3.3196 3.01563,5.22461 0.87438,1.84548 1.54538,3.86765 2.01172,6.07031 0.46633,2.20267 0.72881,4.58468 0.78711,7.14454 0,1.42875 -0.17564,2.50046 -0.5254,3.21484 -0.17487,0.29766 -0.48077,0.5514 -0.91796,0.75977 -0.43719,0.20836 -1.00558,0.37117 -1.70508,0.49023 l -51.58789,0 c -0.34975,1.78595 -0.52539,3.69077 -0.52539,5.71484 0,2.02408 0.11644,4.64467 0.34961,7.85938 0.14573,2.2622 0.42646,4.43397 0.84179,6.51758 0.41533,2.0836 0.96546,4.07741 1.65039,5.98242 0.68494,1.90501 1.50446,3.72085 2.45899,5.44726 0.95453,1.72642 2.0454,3.36429 3.26953,4.91211 1.22413,1.51806 2.55975,2.84584 4.00977,3.98438 1.45001,1.13854 3.01355,2.08863 4.68945,2.84765 1.67589,0.75903 3.46541,1.32752 5.36719,1.70704 1.90177,0.37951 3.9153,0.56835 6.04296,0.56835 2.91461,0 5.62626,-0.2821 8.13282,-0.84765 1.25328,-0.28278 2.4542,-0.63639 3.60547,-1.06055 1.15126,-0.42416 2.25152,-0.91882 3.30078,-1.48437 2.1568,-1.19063 4.12443,-2.51414 5.90234,-3.97266 1.77791,-1.45852 3.36662,-3.05288 4.76563,-4.7793 l 2.44921,1.60743 c -0.81608,1.48829 -1.70615,2.91788 -2.66796,4.2871 -0.96182,1.36923 -1.99597,2.67953 -3.10352,3.92969 -1.10755,1.25017 -2.28774,2.44117 -3.54102,3.57227 -1.25327,1.1311 -2.5795,2.20085 -3.97851,3.21289 -1.36986,0.98227 -2.78293,1.84337 -4.24024,2.58008 -1.4573,0.7367 -2.95916,1.35066 -4.5039,1.84179 -1.54474,0.49114 -3.13345,0.85795 -4.76563,1.10352 -1.63217,0.24557 -3.30773,0.36914 -5.02734,0.36914 -2.50656,0 -4.92613,-0.26695 -7.25781,-0.80273 -2.33168,-0.53579 -4.57562,-1.34055 -6.73242,-2.41211 -2.09852,-1.07157 -4.06615,-2.35156 -5.90235,-3.83985 -1.8362,-1.48829 -3.54135,-3.18483 -5.11523,-5.08984 -1.57389,-1.90501 -2.98696,-3.9746 -4.24024,-6.20703 -1.25328,-2.23244 -2.34662,-4.62764 -3.27929,-7.1875 -0.87439,-2.55986 -1.52961,-5.23913 -1.9668,-8.03711 -0.43719,-2.79799 -0.65625,-5.71389 -0.65625,-8.75 0,-3.75049 0.23288,-7.30834 0.69922,-10.67188 0.46633,-3.36353 1.16693,-6.53318 2.09961,-9.50976 0.93267,-2.97658 2.02601,-5.71452 3.27929,-8.21485 1.25328,-2.50032 2.66635,-4.76303 4.24024,-6.78711 1.63218,-2.0836 3.39457,-3.9146 5.28906,-5.49218 1.89449,-1.57759 3.92132,-2.90304 6.07813,-3.97461 2.21509,-1.07157 4.50245,-1.87437 6.86328,-2.41016 2.36082,-0.53578 4.79422,-0.80273 7.30078,-0.80273 z m -175.40039,0.17773 3.14844,0 c -0.34976,3.21471 -0.58459,6.54912 -0.70118,10.00195 l 0,9.46485 c 1.74876,-2.38126 3.73217,-4.70265 5.94727,-6.96485 2.2151,-2.38126 4.42943,-4.52467 6.64453,-6.42968 2.33168,-1.78595 4.60521,-3.21554 6.82031,-4.28711 1.10755,-0.59532 2.18512,-1.04024 3.23438,-1.33789 1.04925,-0.29766 2.06958,-0.44727 3.06054,-0.44727 1.39901,0 2.71142,0.19312 3.93555,0.58008 1.22413,0.38695 2.3609,0.96828 3.41016,1.74219 1.04925,0.71438 1.8367,1.5778 2.36133,2.58984 0.52462,1.01204 0.78711,2.17273 0.78711,3.48242 0,1.42876 -0.21906,2.69359 -0.65626,3.79492 -0.43719,1.10134 -1.09241,2.03859 -1.96679,2.8125 -0.81609,0.71438 -1.61931,1.25024 -2.40625,1.60743 -0.78694,0.35719 -1.55861,0.53515 -2.31641,0.53515 -1.39901,0 -2.50618,-0.17796 -3.32226,-0.53515 -0.81609,-0.47626 -1.63313,-1.01211 -2.44922,-1.60743 -0.81609,-0.59531 -1.74762,-1.13116 -2.79688,-1.60742 -0.93267,-0.47625 -2.21548,-0.71484 -3.84765,-0.71484 -0.52463,0 -1.15221,0.13445 -1.88086,0.40234 -0.72865,0.26789 -1.55756,0.6693 -2.49024,1.20508 -1.86534,1.07157 -3.67311,2.44054 -5.42187,4.10742 -0.93268,0.83344 -1.79314,1.74234 -2.58008,2.72461 -0.78694,0.98227 -1.50137,2.03882 -2.14258,3.16992 -0.64121,1.07157 -1.1208,2.15844 -1.44141,3.25977 -0.3206,1.10133 -0.48242,2.21656 -0.48242,3.34766 l 0,37.86328 c 0,2.85751 0.17564,5.23756 0.52539,7.14257 0.23317,0.89298 0.5825,1.68258 1.04883,2.36719 0.46634,0.68462 1.0505,1.26398 1.75,1.74024 0.69951,0.47625 1.54419,0.8796 2.53516,1.20703 0.99096,0.32742 2.12773,0.57922 3.41015,0.75781 2.56485,0.35719 6.00475,0.53516 10.31836,0.53516 l 0,4.46679 c -2.68143,-0.11906 -6.00489,-0.17968 -9.96875,-0.17968 -3.96386,-0.11907 -8.04516,-0.17774 -12.24218,-0.17774 -4.19703,0 -8.27638,0.0586 -12.24024,0.17774 -3.96386,0 -7.28731,0.0606 -9.96875,0.17968 l 0,-4.46679 c 2.9729,0 5.42207,-0.19313 7.34571,-0.58008 0.96181,-0.19348 1.79268,-0.43439 2.49218,-0.72461 0.69951,-0.29022 1.26789,-0.62867 1.70508,-1.01563 0.43719,-0.38695 0.81859,-0.9162 1.14648,-1.58593 0.3279,-0.66973 0.60172,-1.48109 0.82032,-2.4336 0.43719,-1.90501 0.65625,-4.37404 0.65625,-7.41015 l 0,-41.97071 c 0,-3.2147 -0.11644,-5.77467 -0.34961,-7.67968 -0.11659,-0.95251 -0.29222,-1.80078 -0.52539,-2.54493 -0.23317,-0.74414 -0.52525,-1.38413 -0.875,-1.91992 -0.34975,-0.53578 -0.78592,-0.98265 -1.31055,-1.33984 -0.52463,-0.35719 -1.13643,-0.62414 -1.83594,-0.80274 -1.39901,-0.35719 -3.32322,-0.5371 -5.77148,-0.53711 l 0,-3.75 c 1.86534,-0.29765 3.64351,-0.66874 5.33398,-1.11523 1.69047,-0.44649 3.293,-0.96718 4.8086,-1.5625 1.57388,-0.59532 3.08957,-1.3546 4.54687,-2.27734 1.4573,-0.92274 2.85655,-2.00961 4.19727,-3.25977 z"
       id="path4195"
       inkscape:connector-curvature="0" />
    <path
       style="opacity:1;fill:#554e44;fill-opacity:1;fill-rule:nonzero;stroke:none;stroke-width:2.5;stroke-linecap:round;stroke-linejoin:bevel;stroke-miterlimit:4;stroke-dasharray:none;stroke-opacity:1"
       d="m 617.82227,875.38367 c -0.64122,3.75049 -1.4859,7.08491 -2.53516,10.00196 -0.52463,1.45852 -1.09992,2.81233 -1.72656,4.0625 -0.62664,1.25016 -1.30456,2.39569 -2.03321,3.4375 -0.72865,1.0418 -1.54817,2.00704 -2.45898,2.89258 -0.91081,0.88553 -1.91288,1.69261 -3.00586,2.42187 -1.09298,0.72926 -2.2776,1.38013 -3.55273,1.95313 -1.27514,0.57299 -2.64036,1.06765 -4.09766,1.48437 l 0,3.39258 12.24023,0 0,59.83008 c 0,1.42875 0.0913,2.77169 0.27344,4.02929 0.18216,1.25761 0.45599,2.42918 0.82031,3.51563 0.36433,1.08645 0.81875,2.08861 1.36524,3.00391 0.54649,0.91529 1.18541,1.74413 1.91406,2.48828 0.72865,0.74414 1.52548,1.39501 2.39258,1.95312 0.86709,0.55811 1.80305,1.02246 2.80859,1.39453 1.00554,0.37207 2.08063,0.65186 3.22461,0.83789 1.14398,0.18604 2.3582,0.2793 3.64063,0.2793 2.21509,0 4.34259,-0.25375 6.38281,-0.75977 2.04022,-0.50601 3.99208,-1.26335 5.85742,-2.27539 1.86535,-1.07156 3.68694,-2.32319 5.46485,-3.75195 1.7779,-1.42876 3.51265,-3.03632 5.20312,-4.82227 l -1.57422,-2.5 c -0.6995,0.59532 -1.69023,1.1918 -2.97266,1.78711 -1.28242,0.59532 -2.73891,1.18984 -4.37109,1.78516 -1.51559,0.59532 -3.09048,1.0725 -4.72265,1.42969 -1.5156,0.35719 -2.7984,0.53515 -3.84766,0.53515 -0.84524,0 -1.6465,-0.0781 -2.4043,-0.23437 -0.75779,-0.15627 -1.47222,-0.39058 -2.14258,-0.70313 -0.67035,-0.31254 -1.29598,-0.70306 -1.8789,-1.17187 -0.58292,-0.46881 -1.12171,-1.01554 -1.61719,-1.64063 -0.49548,-0.62508 -0.92917,-1.38864 -1.30078,-2.28906 -0.37161,-0.90041 -0.68195,-1.93753 -0.92969,-3.11328 -0.49548,-2.3515 -0.74219,-5.2542 -0.74219,-8.70703 l 0,-50.90039 27.97852,0 0,-7.85742 -27.97852,0 0,-21.78907 -3.67382,0 z"
       id="path4193"
       inkscape:connector-curvature="0" />
    <path
       style="opacity:1;fill:#554e44;fill-opacity:1;fill-rule:nonzero;stroke:none;stroke-width:2.5;stroke-linecap:round;stroke-linejoin:bevel;stroke-miterlimit:4;stroke-dasharray:none;stroke-opacity:1"
       d="m 50,845.91492 0,4.64454 c 3.380939,0.11906 6.179434,0.41632 8.394531,0.89257 1.107549,0.1786 2.098276,0.4607 2.972657,0.84766 0.87438,0.38696 1.632225,0.87929 2.273437,1.47461 0.641212,0.65485 1.179997,1.42929 1.617187,2.32227 0.437191,0.89297 0.772692,1.90405 1.00586,3.03515 0.29146,1.1311 0.51052,2.45656 0.65625,3.97461 0.14573,1.51806 0.21875,3.22976 0.21875,5.13477 l 0,87.50976 c 0,2.02408 -0.07302,3.85507 -0.21875,5.49219 -0.14573,1.63712 -0.36479,3.08187 -0.65625,4.33203 -0.233168,1.25016 -0.568669,2.35023 -1.00586,3.30273 -0.43719,0.95251 -0.975975,1.75727 -1.617187,2.41211 -0.641212,0.71438 -1.399057,1.30891 -2.273437,1.78516 -0.874381,0.47625 -1.865108,0.83414 -2.972657,1.07227 -2.215097,0.47625 -5.013592,0.71289 -8.394531,0.71289 l 0,4.46679 c 2.331682,-0.11906 5.4795,-0.17968 9.443359,-0.17968 l 12.765625,0 c 4.313612,0 8.452157,0.0606 12.416016,0.17968 l 9.443359,0 0,-4.46679 c -2.914602,0 -5.377596,-0.28211 -7.388671,-0.84766 -1.005538,-0.28277 -1.898079,-0.63638 -2.677735,-1.06055 -0.779656,-0.42416 -1.446225,-0.91882 -2,-1.48437 -0.524628,-0.59532 -0.983482,-1.36976 -1.376953,-2.32227 -0.393471,-0.9525 -0.722061,-2.08288 -0.984375,-3.39258 -0.524628,-2.61938 -0.785156,-5.9538 -0.785156,-10.00195 l 0,-33.21875 14.689453,-14.46484 50.189458,71.08008 5.76953,0 c 2.33168,-0.11907 4.72165,-0.17774 7.16992,-0.17774 2.44826,0 4.83824,0.0586 7.16992,0.17774 l 5.94727,0 0,-4.28711 -4.19727,0 c -1.63218,0 -3.43995,-0.23664 -5.42187,-0.71289 -1.86535,-0.35719 -3.73036,-1.01234 -5.59571,-1.96485 -0.93267,-0.47625 -1.79313,-1.05757 -2.58008,-1.74219 -0.78694,-0.68461 -1.50136,-1.47226 -2.14257,-2.36523 l -49.13868,-67.15234 30.25196,-30.00391 c 4.19702,-4.16721 7.81256,-7.5603 10.84375,-10.17969 3.14777,-2.73845 5.88707,-4.82124 8.21875,-6.25 1.16584,-0.77391 2.27301,-1.4139 3.32226,-1.91992 1.04926,-0.50602 2.03999,-0.87906 2.97266,-1.11719 1.98193,-0.59531 4.02258,-0.89257 6.12109,-0.89257 l 0,-4.46485 c -1.98193,0.23813 -4.54754,0.35742 -7.69531,0.35742 l -9.79297,0 c -3.49752,0 -6.87822,-0.0606 -10.14258,-0.17968 -3.14777,-0.11907 -5.77062,-0.23836 -7.86914,-0.35743 l 0,4.64454 c 1.39901,0 2.71142,0.0738 3.93555,0.22265 1.22413,0.14883 2.3609,0.37227 3.41016,0.66992 1.04925,0.23813 1.83474,0.65469 2.35937,1.25 0.52463,0.59532 0.78711,1.36976 0.78711,2.32227 0,0.71438 -0.34932,1.60812 -1.04883,2.67969 -0.58292,1.07157 -1.34076,2.08265 -2.27344,3.03515 -0.81608,1.07157 -1.69037,2.08461 -2.62304,3.03711 l -2.09766,2.14258 -50.539061,50.00586 0,-47.68359 c 0,-3.81002 0.173685,-6.84718 0.523437,-9.10938 0.233168,-1.1311 0.554847,-2.14218 0.962891,-3.03515 0.408044,-0.89298 0.903408,-1.66742 1.486328,-2.32227 0.524628,-0.59532 1.150256,-1.08765 1.878906,-1.47461 0.728651,-0.38696 1.559515,-0.66906 2.492188,-0.84766 1.865345,-0.47625 4.198075,-0.77351 6.996093,-0.89257 l 0,-4.64454 c -2.098513,0.11907 -5.129891,0.23836 -9.09375,0.35743 l -12.242187,0 -12.591797,0 C 55.303719,846.15328 52.215098,846.03399 50,845.91492 Z"
       id="path4189"
       inkscape:connector-curvature="0" />
    <path
       style="opacity:1;fill:#554e44;fill-opacity:1;fill-rule:nonzero;stroke:none;stroke-width:2.5;stroke-linecap:round;stroke-linejoin:bevel;stroke-miterlimit:4;stroke-dasharray:none;stroke-opacity:1"
       d="m 377.92578,803.23328 c -0.90559,0 -1.78377,0.0974 -2.63672,0.29102 -0.85294,0.19357 -1.68017,0.48395 -2.48047,0.87109 -0.77923,0.38715 -1.51085,0.86558 -2.19531,1.43555 -0.68446,0.56997 -1.32047,1.23159 -1.91016,1.98437 -0.56862,0.73128 -1.0804,1.54783 -1.5332,2.45118 -0.4528,0.90334 -0.84663,1.89334 -1.18359,2.96875 -0.33697,1.07541 -0.59128,2.22033 -0.75977,3.43554 -0.16848,1.21522 -0.25195,2.50046 -0.25195,3.85547 0,1.09692 0.0784,2.15123 0.23633,3.16211 0.15795,1.01089 0.39503,1.97749 0.71094,2.90235 0.67393,1.8497 1.57953,3.46332 2.71679,4.83984 0.56863,0.68826 1.18426,1.30215 1.84766,1.83984 0.6634,0.53771 1.37464,0.99957 2.13281,1.38672 0.77923,0.38715 1.59118,0.67752 2.43359,0.8711 0.84242,0.19357 1.7155,0.28906 2.6211,0.28906 1.24256,0 2.42286,-0.17637 3.53906,-0.53125 1.1162,-0.35489 2.16837,-0.88789 3.1582,-1.59766 1.0109,-0.73128 1.91651,-1.54783 2.7168,-2.45117 0.80029,-0.90334 1.4943,-1.89334 2.08399,-2.96875 l -0.88282,-0.58008 c -1.01089,1.24748 -2.297,2.30178 -3.85547,3.16211 -0.75817,0.40866 -1.58854,0.71364 -2.49414,0.91797 -0.90559,0.20433 -1.88643,0.30664 -2.93945,0.30664 -1.53741,0 -2.91012,-0.27381 -4.12109,-0.82227 -1.21097,-0.54845 -2.26,-1.37183 -3.14453,-2.46874 -0.88454,-1.11843 -1.57345,-2.36567 -2.06836,-3.74219 -0.49492,-1.37653 -0.79509,-2.88101 -0.9004,-4.51563 -0.0843,-1.16144 -0.12695,-2.10856 -0.12695,-2.83984 0,-0.73128 0.0631,-1.41921 0.18945,-2.06445 l 18.63868,0 c 0.50545,-0.0861 0.8209,-0.23609 0.94726,-0.45118 0.12636,-0.25808 0.18946,-0.64591 0.18946,-1.16211 -0.0211,-0.92485 -0.11472,-1.78427 -0.28321,-2.58007 -0.16848,-0.79581 -0.41065,-1.52856 -0.72656,-2.19532 -0.63181,-1.37652 -1.45395,-2.51657 -2.46484,-3.41992 -1.0109,-0.86033 -2.14849,-1.50538 -3.41211,-1.93555 -1.26362,-0.43016 -2.5274,-0.64453 -3.79102,-0.64453 z m -0.25195,2.06446 c 1.09514,0 2.06383,0.21632 2.90625,0.64648 0.84241,0.43016 1.55875,0.96608 2.14844,1.61133 0.54756,0.64524 0.96882,1.35656 1.26367,2.13086 0.33696,0.77429 0.50586,1.5051 0.50586,2.19336 0,0.64524 -0.1689,1.09737 -0.50586,1.35547 -0.33697,0.21508 -0.88441,0.32226 -1.64258,0.32226 l -13.33203,0 c 0.23166,-1.22596 0.58473,-2.33484 1.05859,-3.32422 0.47386,-0.98937 1.06911,-1.86049 1.78516,-2.61328 0.73711,-0.77429 1.58982,-1.35308 2.55859,-1.74023 0.96878,-0.38715 2.05347,-0.58203 3.25391,-0.58203 z"
       id="path4183"
       inkscape:connector-curvature="0" />
    <path
       style="opacity:1;fill:#554e44;fill-opacity:1;fill-rule:nonzero;stroke:none;stroke-width:2.5;stroke-linecap:round;stroke-linejoin:bevel;stroke-miterlimit:4;stroke-dasharray:none;stroke-opacity:1"
       d="m 355.11914,782.45594 c -0.96878,0.90334 -2.10637,1.63415 -3.41211,2.19336 -1.26362,0.5162 -2.57011,0.90401 -3.91797,1.16211 l 0,1.29101 c 0.88454,0 1.60087,0.0428 2.14844,0.12891 0.58969,0.0861 1.03133,0.3004 1.32617,0.64453 0.33697,0.38715 0.54857,0.92502 0.63281,1.61328 0.12637,0.64525 0.18946,1.52806 0.18946,2.64649 l 0,12.90429 c -1.55847,-0.73127 -2.90767,-1.20484 -4.04492,-1.41992 -1.09514,-0.2581 -2.14731,-0.38672 -3.15821,-0.38672 -1.09514,0 -2.15945,0.11888 -3.1914,0.35547 -1.03196,0.23659 -2.03123,0.59128 -3,1.06446 -0.96878,0.47318 -1.87439,1.02761 -2.7168,1.6621 -0.84241,0.6345 -1.62184,1.34873 -2.33789,2.14454 -0.73711,0.7958 -1.39545,1.65522 -1.97461,2.58007 -0.57916,0.92486 -1.07879,1.91485 -1.5,2.96875 -0.42121,1.05391 -0.73666,2.13452 -0.94727,3.24219 -0.2106,1.10767 -0.3164,2.24286 -0.3164,3.4043 0,1.93574 0.29507,3.82803 0.88476,5.67773 0.58969,1.80669 1.43221,3.39887 2.52735,4.77539 0.54757,0.70977 1.14791,1.34996 1.80078,1.91993 0.65287,0.56996 1.35706,1.06983 2.11523,1.5 0.77924,0.40865 1.59628,0.71559 2.44922,0.91992 0.85295,0.20433 1.74327,0.30468 2.66992,0.30468 0.88454,0 1.77291,-0.10035 2.66797,-0.30468 0.89507,-0.20433 1.79558,-0.51127 2.70117,-0.91992 0.92666,-0.43017 1.83736,-0.96317 2.73243,-1.59766 0.89506,-0.63449 1.77519,-1.37017 2.63867,-2.20898 l 0,4.83789 c 0,0.25809 0.0631,0.43154 0.18945,0.51757 0.12636,0.12905 0.31564,0.12905 0.56836,0 1.26362,-0.55921 2.6332,-1.13995 4.10742,-1.74218 1.51635,-0.60223 2.67432,-1.03292 3.47461,-1.29102 l 0,-1.29102 c -1.51634,0.0861 -2.65394,2.9e-4 -3.41211,-0.25781 -0.35802,-0.15055 -0.62567,-0.4458 -0.80469,-0.88672 -0.17901,-0.44091 -0.26953,-1.02653 -0.26953,-1.75781 l 0,-39.16797 c 0,-1.03239 0.0204,-2.19388 0.0625,-3.48437 0.0421,-1.33351 0.12755,-2.58075 0.25391,-3.74219 l -1.13672,0 z m -10.99414,22.8418 c 0.80029,0 1.66319,0.10718 2.58984,0.32226 0.92666,0.21508 1.78955,0.56003 2.58985,1.03321 0.75817,0.47318 1.41141,1.13967 1.95898,2 0.54757,0.81731 0.82227,1.85018 0.82227,3.09765 l 0,15.87305 c 0,0.64524 -0.31546,1.24743 -0.94727,1.80664 -0.63181,0.55921 -1.37047,1.05421 -2.21289,1.48437 -0.84241,0.43017 -1.72569,0.77316 -2.65234,1.03125 -0.92666,0.21509 -1.66337,0.32227 -2.21094,0.32227 -0.86347,0 -1.68052,-0.0753 -2.44922,-0.22852 -0.7687,-0.15324 -1.49013,-0.38296 -2.16406,-0.68945 -0.67393,-0.30649 -1.29975,-0.69065 -1.87891,-1.15039 -0.57916,-0.45974 -1.11131,-0.99639 -1.5957,-1.60937 -0.94772,-1.22597 -1.65896,-2.6184 -2.13281,-4.17774 -0.47386,-1.55934 -0.71094,-3.28501 -0.71094,-5.17773 0,-1.16145 0.0784,-2.24693 0.23633,-3.25782 0.15795,-1.01088 0.39503,-1.94631 0.71093,-2.80664 0.63182,-1.76367 1.47433,-3.22723 2.52735,-4.38867 1.0109,-1.16144 2.17082,-2.02086 3.47656,-2.58008 1.34786,-0.60223 2.69511,-0.90429 4.04297,-0.90429 z"
       id="path4179"
       inkscape:connector-curvature="0" />
    <path
       style="opacity:1;fill:#554e44;fill-opacity:1;fill-rule:nonzero;stroke:none;stroke-width:2.5;stroke-linecap:round;stroke-linejoin:bevel;stroke-miterlimit:4;stroke-dasharray:none;stroke-opacity:1"
       d="m 584.60156,666.995 c -1.24557,1.16144 -2.54651,2.17009 -3.90039,3.02735 -1.35388,0.85725 -2.76046,1.56216 -4.22265,2.11523 -1.40804,0.55307 -2.89825,1.03832 -4.46875,1.45313 -1.5705,0.4148 -3.22212,0.76057 -4.95508,1.0371 l 0,3.48438 c 2.27452,0 4.0616,0.16425 5.36133,0.49609 0.64986,0.16592 1.21768,0.41621 1.70507,0.74805 0.4874,0.33184 0.89382,0.74638 1.21875,1.24414 0.64987,0.99552 1.08416,2.37862 1.30078,4.14844 0.21663,1.76981 0.32422,4.1482 0.32422,7.13476 l 0,38.99024 c 0,2.82064 -0.20321,5.1169 -0.60937,6.88672 -0.20308,0.88491 -0.4571,1.63756 -0.76172,2.25976 -0.30462,0.6222 -0.66024,1.11317 -1.06641,1.47266 -0.40616,0.35949 -0.93412,0.67374 -1.58398,0.94336 -0.64986,0.26962 -1.42089,0.49408 -2.31445,0.67383 -1.78712,0.35949 -4.06231,0.53906 -6.82422,0.53906 l 0,4.14844 c 2.49114,-0.11062 5.57916,-0.16602 9.26172,-0.16602 3.68255,-0.11061 7.47192,-0.16601 11.37109,-0.16601 3.89917,0 7.69049,0.0554 11.37305,0.16601 3.68255,0 6.77058,0.0554 9.26172,0.16602 l 0,-4.14844 c -4.00749,0 -7.20311,-0.16621 -9.58594,-0.49805 -1.19142,-0.16592 -2.24733,-0.40089 -3.16797,-0.70508 -0.92064,-0.30418 -1.70561,-0.67668 -2.35547,-1.11914 -0.64986,-0.44245 -1.19176,-0.98116 -1.625,-1.61718 -0.43324,-0.63603 -0.75799,-1.36962 -0.97461,-2.19922 -0.32493,-1.76982 -0.48828,-3.982 -0.48828,-6.63672 l 0,-35.17578 c 0,-1.05083 0.14941,-2.0862 0.44727,-3.10938 0.29785,-1.02317 0.74413,-2.03377 1.33984,-3.02929 0.59571,-1.05083 1.25914,-2.03276 1.99023,-2.94532 0.7311,-0.91256 1.53001,-1.755 2.39649,-2.52929 1.62465,-1.54859 3.30414,-2.82089 5.03711,-3.81641 0.86648,-0.49776 1.63751,-0.87026 2.31445,-1.11914 0.67694,-0.24888 1.2587,-0.375 1.74609,-0.375 1.51635,0 2.70774,0.22161 3.57422,0.66406 0.9748,0.44246 1.84144,0.94107 2.59961,1.49414 0.75818,0.55307 1.51722,1.04974 2.27539,1.49219 0.75818,0.33184 1.78622,0.49805 3.08594,0.49805 0.70402,0 1.42125,-0.16621 2.15234,-0.49805 0.7311,-0.33184 1.47621,-0.82851 2.23438,-1.49219 0.81233,-0.71899 1.42196,-1.5901 1.82812,-2.61328 0.40617,-1.02317 0.60938,-2.19803 0.60938,-3.52539 0,-1.21675 -0.24307,-2.29611 -0.73047,-3.23633 -0.4874,-0.94021 -1.21857,-1.74257 -2.19336,-2.40625 -0.97479,-0.71899 -2.03071,-1.25769 -3.16797,-1.61718 -1.13726,-0.3595 -2.35652,-0.53907 -3.65625,-0.53907 -0.92064,0 -1.86895,0.13753 -2.84375,0.41407 -0.97479,0.27653 -1.97691,0.69107 -3.00586,1.24414 -2.05789,0.99552 -4.16973,2.32321 -6.33593,3.98242 -2.0579,1.76981 -4.11594,3.76038 -6.17383,5.97265 -2.0579,2.10166 -3.89878,4.26039 -5.52344,6.47266 l 0,-8.79492 c 0.10831,-3.20779 0.32546,-6.30445 0.65039,-9.29102 l -2.92383,0 z"
       id="path4173"
       inkscape:connector-curvature="0" />
    <path
       style="opacity:1;fill:#554e44;fill-opacity:1;fill-rule:nonzero;stroke:none;stroke-width:2.5;stroke-linecap:round;stroke-linejoin:bevel;stroke-miterlimit:4;stroke-dasharray:none;stroke-opacity:1"
       d="m 539.75977,666.995 c -1.24557,1.16144 -2.54456,2.17009 -3.89844,3.02735 -1.35388,0.85725 -2.76242,1.56216 -4.22461,2.11523 -1.40804,0.55307 -2.8963,1.03832 -4.4668,1.45313 -1.5705,0.4148 -3.22211,0.76057 -4.95508,1.0371 l 0,3.48438 c 2.27452,0 4.06161,0.16425 5.36133,0.49609 0.64986,0.16592 1.21768,0.41621 1.70508,0.74805 0.4874,0.33184 0.89382,0.74638 1.21875,1.24414 0.64986,0.99552 1.08221,2.37862 1.29883,4.14844 0.21662,1.76981 0.32617,4.1482 0.32617,7.13476 l 0,40.6504 c 0,2.37819 -0.18927,4.32672 -0.56836,5.84765 -0.18954,0.76047 -0.42662,1.41478 -0.71094,1.96094 -0.28431,0.54615 -0.617,0.98456 -0.99609,1.31641 -0.75817,0.66368 -1.92169,1.16034 -3.49219,1.49218 -1.5705,0.33184 -3.54686,0.49805 -5.92969,0.49805 l 0,4.14844 4.22266,0 c 1.40804,-0.11062 2.81658,-0.16602 4.22461,-0.16602 l 3.89844,0 c 1.40803,-0.11061 2.92612,-0.16601 4.55078,-0.16601 1.51634,0 2.92293,0.0554 4.22266,0.16601 l 4.0625,0 c 1.29972,0.11061 2.59871,0.16602 3.89843,0.16602 l 4.22461,0 0,-4.14844 c -2.38283,0 -4.35919,-0.16621 -5.92969,-0.49805 -1.5705,-0.33184 -2.73596,-0.8285 -3.49414,-1.49218 -0.37908,-0.33185 -0.70982,-0.77026 -0.99414,-1.31641 -0.28431,-0.54616 -0.52139,-1.20047 -0.71093,-1.96094 -0.37909,-1.52093 -0.56836,-3.46946 -0.56836,-5.84765 l 0,-46.95704 0,-8.95898 c 0.10831,-3.42902 0.32546,-6.63648 0.65039,-9.62305 l -2.92578,0 z"
       id="path4171"
       inkscape:connector-curvature="0" />
    <path
       style="opacity:1;fill:#554e44;fill-opacity:1;fill-rule:nonzero;stroke:none;stroke-width:2.5;stroke-linecap:round;stroke-linejoin:bevel;stroke-miterlimit:4;stroke-dasharray:none;stroke-opacity:1"
       d="m 539.75977,666.995 2.92578,0 c -0.32493,2.98657 -0.54208,6.19403 -0.65039,9.62305 l 0,8.95898 0,46.95704 c 0,2.37819 0.18927,4.32672 0.56836,5.84765 0.18954,0.76047 0.42662,1.41478 0.71093,1.96094 0.28432,0.54615 0.61506,0.98456 0.99414,1.31641 0.75818,0.66368 1.92364,1.16034 3.49414,1.49218 1.5705,0.33184 3.54686,0.49805 5.92969,0.49805 l 0,4.14844 -4.22461,0 c -1.29972,0 -2.59871,-0.0554 -3.89843,-0.16602 l -4.0625,0 c -1.29973,-0.11061 -2.70632,-0.16601 -4.22266,-0.16601 -1.62466,0 -3.14275,0.0554 -4.55078,0.16601 l -3.89844,0 c -1.40803,0 -2.81657,0.0554 -4.22461,0.16602 l -4.22266,0 0,-4.14844 c 2.38283,0 4.35919,-0.16621 5.92969,-0.49805 1.5705,-0.33184 2.73402,-0.8285 3.49219,-1.49218 0.37909,-0.33185 0.71178,-0.77026 0.99609,-1.31641 0.28432,-0.54616 0.5214,-1.20047 0.71094,-1.96094 0.37909,-1.52093 0.56836,-3.46946 0.56836,-5.84765 l 0,-40.6504 c 0,-2.98656 -0.10955,-5.36495 -0.32617,-7.13476 -0.21662,-1.76982 -0.64897,-3.15292 -1.29883,-4.14844 -0.32493,-0.49776 -0.73135,-0.9123 -1.21875,-1.24414 -0.4874,-0.33184 -1.05522,-0.58213 -1.70508,-0.74805 -1.29972,-0.33184 -3.08681,-0.49609 -5.36133,-0.49609 l 0,-3.48438 c 1.73297,-0.27653 3.38458,-0.6223 4.95508,-1.0371 1.5705,-0.41481 3.05876,-0.90006 4.4668,-1.45313 1.46219,-0.55307 2.87073,-1.25798 4.22461,-2.11523 1.35388,-0.85726 2.65287,-1.86591 3.89844,-3.02735 z m 44.84179,0 2.92383,0 c -0.32493,2.98657 -0.54208,6.08323 -0.65039,9.29102 l 0,8.79492 c 1.62466,-2.21227 3.46554,-4.371 5.52344,-6.47266 2.05789,-2.21227 4.11593,-4.20284 6.17383,-5.97265 2.1662,-1.65921 4.27804,-2.9869 6.33593,-3.98242 1.02895,-0.55307 2.03107,-0.96761 3.00586,-1.24414 0.9748,-0.27654 1.92311,-0.41407 2.84375,-0.41407 1.29973,0 2.51899,0.17957 3.65625,0.53907 1.13726,0.35949 2.19318,0.89819 3.16797,1.61718 0.97479,0.66368 1.70596,1.46604 2.19336,2.40625 0.4874,0.94022 0.73047,2.01958 0.73047,3.23633 0,1.32736 -0.20321,2.50222 -0.60938,3.52539 -0.40616,1.02318 -1.01579,1.89429 -1.82812,2.61328 -0.75817,0.66368 -1.50328,1.16035 -2.23438,1.49219 -0.73109,0.33184 -1.44832,0.49805 -2.15234,0.49805 -1.29972,0 -2.32776,-0.16621 -3.08594,-0.49805 -0.75817,-0.44245 -1.51721,-0.93912 -2.27539,-1.49219 -0.75817,-0.55307 -1.62481,-1.05168 -2.59961,-1.49414 -0.86648,-0.44245 -2.05787,-0.66406 -3.57422,-0.66406 -0.48739,0 -1.06915,0.12612 -1.74609,0.375 -0.67694,0.24888 -1.44797,0.62138 -2.31445,1.11914 -1.73297,0.99552 -3.41246,2.26782 -5.03711,3.81641 -0.86648,0.77429 -1.66539,1.61673 -2.39649,2.52929 -0.73109,0.91256 -1.39452,1.89449 -1.99023,2.94532 -0.59571,0.99552 -1.04199,2.00612 -1.33984,3.02929 -0.29786,1.02318 -0.44727,2.05855 -0.44727,3.10938 l 0,35.17578 c 0,2.65472 0.16335,4.8669 0.48828,6.63672 0.21662,0.8296 0.54137,1.56319 0.97461,2.19922 0.43324,0.63602 0.97514,1.17473 1.625,1.61718 0.64986,0.44246 1.43483,0.81496 2.35547,1.11914 0.92064,0.30419 1.97655,0.53916 3.16797,0.70508 2.38283,0.33184 5.57845,0.49805 9.58594,0.49805 l 0,4.14844 c -2.49114,-0.11062 -5.57917,-0.16602 -9.26172,-0.16602 -3.68256,-0.11061 -7.47388,-0.16601 -11.37305,-0.16601 -3.89917,0 -7.68854,0.0554 -11.37109,0.16601 -3.68256,0 -6.77058,0.0554 -9.26172,0.16602 l 0,-4.14844 c 2.76191,0 5.0371,-0.17957 6.82422,-0.53906 0.89356,-0.17975 1.66459,-0.40421 2.31445,-0.67383 0.64986,-0.26962 1.17782,-0.58387 1.58398,-0.94336 0.40617,-0.35949 0.76179,-0.85046 1.06641,-1.47266 0.30462,-0.6222 0.55864,-1.37485 0.76172,-2.25976 0.40616,-1.76982 0.60937,-4.06608 0.60937,-6.88672 l 0,-38.99024 c 0,-2.98656 -0.10759,-5.36495 -0.32422,-7.13476 -0.21662,-1.76982 -0.65091,-3.15292 -1.30078,-4.14844 -0.32493,-0.49776 -0.73135,-0.9123 -1.21875,-1.24414 -0.48739,-0.33184 -1.05521,-0.58213 -1.70507,-0.74805 -1.29973,-0.33184 -3.08681,-0.49609 -5.36133,-0.49609 l 0,-3.48438 c 1.73296,-0.27653 3.38458,-0.6223 4.95508,-1.0371 1.5705,-0.41481 3.06071,-0.90006 4.46875,-1.45313 1.46219,-0.55307 2.86877,-1.25798 4.22265,-2.11523 1.35388,-0.85726 2.65482,-1.86591 3.90039,-3.02735 z"
       id="path4169"
       inkscape:connector-curvature="0" />
    <path
       style="opacity:1;fill:#554e44;fill-opacity:1;fill-rule:nonzero;stroke:none;stroke-width:2.5;stroke-linecap:round;stroke-linejoin:bevel;stroke-miterlimit:4;stroke-dasharray:none;stroke-opacity:1"
       d="m 287.28906,666.995 c -1.29972,0 -2.57279,0.11081 -3.81836,0.33203 -1.24557,0.22123 -2.46288,0.55169 -3.65429,0.99414 -2.27452,0.88491 -5.1992,2.32341 -8.77344,4.31446 -3.08685,1.6592 -5.75451,3.25055 -8.00195,4.77148 -2.24744,1.52094 -4.07439,2.9728 -5.48243,4.35547 -1.35388,1.38267 -2.36993,2.79249 -3.04687,4.23047 -0.33847,0.71899 -0.59249,1.44492 -0.76172,2.17773 -0.16923,0.73282 -0.25391,1.47211 -0.25391,2.21875 0,0.88491 0.0817,1.68727 0.24414,2.40625 0.16247,0.71899 0.40554,1.35514 0.73047,1.90821 0.37909,0.55306 0.82537,0.9676 1.33985,1.24414 0.51447,0.27653 1.09818,0.41406 1.74804,0.41406 0.75818,0 1.44753,-0.15089 2.07032,-0.45508 0.62278,-0.30419 1.17862,-0.76076 1.66601,-1.36914 0.54155,-0.60837 0.94798,-1.39736 1.21875,-2.36523 0.27078,-0.96787 0.40625,-2.116 0.40625,-3.44336 0.0271,-0.96787 0.1576,-1.89724 0.39453,-2.78907 0.23693,-0.89182 0.57861,-1.74477 1.02539,-2.56054 0.44678,-0.81578 0.99962,-1.59426 1.65625,-2.33399 0.65664,-0.73972 1.41868,-1.44178 2.28516,-2.10547 0.89356,-0.69133 1.817,-1.29595 2.77148,-1.81445 0.95449,-0.5185 1.93967,-0.94925 2.95508,-1.29492 1.01541,-0.34567 2.06039,-0.60646 3.13672,-0.7793 1.07634,-0.17283 2.18305,-0.25781 3.32031,-0.25781 1.59758,0 3.06292,0.10025 4.39649,0.30078 1.33357,0.20049 2.5359,0.49942 3.60547,0.90039 1.06956,0.40098 2.00694,0.90245 2.8125,1.50391 0.80556,0.60146 1.47993,1.30352 2.02148,2.10547 0.56863,0.77429 1.06571,1.60337 1.49219,2.48828 0.42647,0.88491 0.78209,1.82674 1.06641,2.82226 0.56862,1.99105 0.85156,4.20323 0.85156,6.63672 l 0,11.44727 c -6.49863,2.10166 -12.50938,4.09418 -18.03321,5.97461 -2.76191,0.94021 -5.33396,1.92018 -7.71679,2.94336 -2.38283,1.02317 -4.57634,2.08917 -6.58008,3.19531 -2.0579,1.10614 -3.89878,2.30771 -5.52344,3.60742 -1.62465,1.29971 -3.03319,2.69617 -4.22461,4.18946 -1.13726,1.43797 -2.0039,3.02932 -2.59961,4.77148 -0.5957,1.74216 -0.92045,3.63529 -0.97461,5.68164 -0.0542,1.2444 0.005,2.43742 0.17383,3.57812 0.16924,1.14071 0.44917,2.23058 0.8418,3.26758 0.39262,1.037 0.89766,2.02178 1.51367,2.95508 0.61602,0.9333 1.34419,1.81493 2.18359,2.64453 0.83941,0.80195 1.72598,1.50206 2.66016,2.10352 0.93418,0.60146 1.91441,1.10293 2.94336,1.5039 1.02895,0.40098 2.10675,0.70186 3.23047,0.90235 1.12372,0.20049 2.29323,0.30078 3.51172,0.30078 2.6536,0 5.25353,-0.3171 7.79883,-0.95313 2.54529,-0.63602 5.03762,-1.59122 7.4746,-2.86328 2.43699,-1.32736 4.76402,-2.86135 6.98438,-4.60351 2.22036,-1.74217 4.3322,-3.69265 6.33594,-5.84961 0.10831,2.32288 0.37926,4.37081 0.8125,6.14062 0.43324,1.76982 1.02893,3.26177 1.78711,4.47852 0.81232,1.21675 1.74671,2.12991 2.80273,2.73828 1.05603,0.60837 2.23543,0.91211 3.53516,0.91211 1.35388,0 2.69273,-0.23497 4.01953,-0.70508 1.3268,-0.47011 2.63973,-1.17502 3.93945,-2.11523 2.70776,-1.88043 5.25389,-3.98181 7.63672,-6.30469 l -0.48828,-2.82031 c -1.02895,0.71898 -2.01218,1.32075 -2.95313,1.80468 -0.94094,0.48394 -1.83846,0.84878 -2.6914,1.09766 -0.85295,0.24888 -1.66279,0.38071 -2.42774,0.39453 -0.76494,0.0139 -1.48517,-0.0893 -2.16211,-0.31054 -0.64986,-0.22123 -1.21768,-0.60905 -1.70507,-1.16211 -0.4874,-0.55307 -0.89382,-1.27135 -1.21875,-2.15625 -0.32493,-0.88491 -0.56996,-1.9356 -0.73243,-3.15235 -0.16246,-1.21675 -0.24218,-2.59985 -0.24218,-4.14844 l 0,-45.29687 c 0,-1.52094 -0.12349,-2.95178 -0.36719,-4.29297 -0.2437,-1.34118 -0.60831,-2.59246 -1.0957,-3.75391 -0.4874,-1.16144 -1.09703,-2.23314 -1.82813,-3.21484 -0.73109,-0.98169 -1.5838,-1.87383 -2.55859,-2.67578 -0.94772,-0.80195 -1.93889,-1.50206 -2.97461,-2.10352 -1.03572,-0.60146 -2.11652,-1.10293 -3.24024,-1.5039 -1.12372,-0.40098 -2.29023,-0.70186 -3.50195,-0.90235 -1.21172,-0.20048 -2.46785,-0.30078 -3.76758,-0.30078 z m 9.42188,40.31836 0,24.22461 c -1.35388,1.49328 -2.82821,2.88975 -4.42578,4.18945 -1.59758,1.29971 -3.31693,2.50324 -5.15821,3.60938 -1.84127,1.10613 -3.72397,1.93521 -5.64648,2.48828 -1.92251,0.55307 -3.88493,0.83008 -5.88867,0.83008 -2.27452,0 -4.30663,-0.22161 -6.09375,-0.66406 -1.78712,-0.44246 -3.32918,-1.10728 -4.62891,-1.99219 -0.62278,-0.47011 -1.16768,-1.04034 -1.63476,-1.71094 -0.46709,-0.67059 -0.85658,-1.44142 -1.16797,-2.3125 -0.3114,-0.87108 -0.54548,-1.84249 -0.70118,-2.91406 -0.15569,-1.07157 -0.23242,-2.24357 -0.23242,-3.51563 0,-1.21674 0.18133,-2.37824 0.54688,-3.48437 0.36555,-1.10614 0.91343,-2.15682 1.64453,-3.15234 0.73109,-0.99553 1.64554,-1.93541 2.74219,-2.82032 1.09664,-0.88491 2.3757,-1.71398 3.83789,-2.48828 2.97853,-1.60389 6.70212,-3.264 11.16992,-4.97851 4.4678,-1.71451 9.67965,-3.48348 15.63672,-5.3086 z"
       id="path4166"
       inkscape:connector-curvature="0" />
    <path
       style="opacity:1;fill:#554e44;fill-opacity:1;fill-rule:nonzero;stroke:none;stroke-width:2.5;stroke-linecap:round;stroke-linejoin:bevel;stroke-miterlimit:4;stroke-dasharray:none;stroke-opacity:1"
       d="m 466.65039,666.82899 c -2.76191,0 -5.41564,0.29037 -7.96094,0.87109 -2.54529,0.58072 -4.98187,1.45184 -7.31054,2.61328 -2.32868,1.10614 -4.50825,2.40516 -6.53907,3.89844 -2.03082,1.49328 -3.91351,3.18012 -5.64648,5.06055 -1.67881,1.93573 -3.18101,4.03711 -4.50781,6.30468 -1.32681,2.26758 -2.47833,4.70137 -3.45313,7.30078 -0.92064,2.54412 -1.60999,5.17083 -2.07031,7.88086 -0.46032,2.71004 -0.69141,5.50296 -0.69141,8.37891 0,3.20779 0.27095,6.26436 0.8125,9.16797 0.54156,2.9036 1.3544,5.65449 2.4375,8.25391 1.08311,2.54411 2.35617,4.89577 3.81836,7.05273 1.46219,2.15696 3.1138,4.12081 4.95508,5.89062 1.84128,1.82513 3.83157,3.42787 5.9707,4.81055 2.13913,1.38267 4.4263,2.54416 6.86328,3.48438 2.43699,0.94021 4.94131,1.64512 7.51368,2.11523 2.57237,0.47011 5.21411,0.70508 7.92187,0.70508 2.59945,0 5.11771,-0.27701 7.55469,-0.83008 2.43698,-0.55307 4.79189,-1.38214 7.06641,-2.48828 2.32867,-1.10614 4.50824,-2.41852 6.53906,-3.93945 2.03082,-1.52094 3.91352,-3.24981 5.64648,-5.18555 1.73297,-1.88043 3.28897,-3.9264 4.66992,-6.13867 1.38096,-2.21227 2.58629,-4.59066 3.61524,-7.13477 1.02895,-2.59942 1.79998,-5.28153 2.31445,-8.04687 0.51448,-2.76534 0.77149,-5.61367 0.77149,-8.54492 0,-3.15249 -0.269,-6.15366 -0.81055,-9.00196 -0.54155,-2.8483 -1.3544,-5.54378 -2.4375,-8.08789 -1.02895,-2.59942 -2.24822,-4.99116 -3.65625,-7.17578 -1.40804,-2.18462 -3.00585,-4.16182 -4.79297,-5.93164 -1.78712,-1.82512 -3.74954,-3.42983 -5.88867,-4.8125 -2.13913,-1.38267 -4.45418,-2.54416 -6.94531,-3.48438 -2.43699,-0.99552 -4.96918,-1.74247 -7.59571,-2.24023 -2.62652,-0.49776 -5.34799,-0.74609 -8.16406,-0.74609 z m 0.48828,4.48047 c 1.27265,0 2.49491,0.0792 3.66602,0.23828 1.1711,0.159 2.28982,0.39683 3.35937,0.71484 1.06957,0.31801 2.08862,0.71634 3.05664,1.19336 0.96803,0.47702 1.88547,1.03194 2.75196,1.66797 1.78712,1.21675 3.41281,2.61321 4.875,4.18945 1.46219,1.57624 2.76117,3.3338 3.89843,5.26953 1.08311,1.88043 2.01749,3.871 2.80274,5.97266 0.78525,2.10166 1.4208,4.31383 1.9082,6.63672 0.4874,2.26758 0.85396,4.47975 1.09766,6.63672 0.2437,2.15696 0.36523,4.25833 0.36523,6.30468 0,1.99105 -0.12153,4.02366 -0.36523,6.09766 -0.2437,2.074 -0.61026,4.19069 -1.09766,6.34766 -0.43324,2.10165 -1.02894,4.10559 -1.78711,6.01367 -0.75817,1.90808 -1.67861,3.71908 -2.76172,5.43359 -1.02895,1.76982 -2.22034,3.37453 -3.57422,4.8125 -1.35388,1.43798 -2.87001,2.71027 -4.54882,3.81641 -1.67881,1.10613 -3.54758,1.93521 -5.60547,2.48828 -2.0579,0.55307 -4.30521,0.83008 -6.74219,0.83008 -1.29972,0 -2.54791,-0.0792 -3.74609,-0.23828 -1.19819,-0.15901 -2.34672,-0.39879 -3.44336,-0.7168 -1.09665,-0.31801 -2.14162,-0.71439 -3.13672,-1.19141 -0.9951,-0.47702 -1.94043,-1.03389 -2.83399,-1.66992 -1.73296,-1.32736 -3.3029,-2.8079 -4.71093,-4.43945 -1.40804,-1.63155 -2.65323,-3.41387 -3.73633,-5.34961 -1.08311,-1.93574 -2.01749,-3.94162 -2.80274,-6.01563 -0.78525,-2.074 -1.4208,-4.21741 -1.9082,-6.42968 -0.4874,-2.26758 -0.85396,-4.45108 -1.09766,-6.55274 -0.24369,-2.10165 -0.36523,-4.1209 -0.36523,-6.05664 0,-2.04635 0.1076,-4.10568 0.32422,-6.17969 0.21662,-2.074 0.54332,-4.16201 0.97656,-6.26367 0.4874,-2.15696 1.10902,-4.21825 1.86719,-6.18164 0.75817,-1.96339 1.65269,-3.82979 2.68164,-5.59961 1.02895,-1.71451 2.22034,-3.27718 3.57422,-4.6875 1.35388,-1.41032 2.87002,-2.6673 4.54883,-3.77344 1.73296,-1.10613 3.64158,-1.93716 5.72656,-2.49023 2.08497,-0.55307 4.34622,-0.82812 6.7832,-0.82812 z"
       id="path4162"
       inkscape:connector-curvature="0" />
    <path
       style="opacity:1;fill:#554e44;fill-opacity:1;fill-rule:nonzero;stroke:none;stroke-width:2.5;stroke-linecap:round;stroke-linejoin:bevel;stroke-miterlimit:4;stroke-dasharray:none;stroke-opacity:1"
       d="m 385.90625,666.82899 c -1.29972,0 -2.6146,0.10314 -3.94141,0.31054 -1.3268,0.2074 -2.66565,0.5188 -4.01953,0.9336 -1.35388,0.4148 -2.72256,0.93248 -4.10351,1.55468 -1.38096,0.62221 -2.77556,1.34814 -4.1836,2.17774 -2.81607,1.6592 -5.53753,3.36135 -8.16406,5.10352 -2.62653,1.74216 -5.15677,3.52448 -7.59375,5.3496 l 0,-6.4707 c 0.10831,-2.87595 0.32351,-5.8064 0.64844,-8.79297 l -3.08594,0 c -1.19141,1.16144 -2.45054,2.17009 -3.77734,3.02735 -1.32681,0.85725 -2.72141,1.56216 -4.1836,2.11523 -1.40803,0.55307 -2.89825,1.03832 -4.46875,1.45313 -1.5705,0.4148 -3.22211,0.76057 -4.95508,1.0371 l 0,3.48438 c 2.27452,0 4.06161,0.16425 5.36133,0.49609 0.64987,0.16592 1.21964,0.41621 1.70703,0.74805 0.4874,0.33184 0.89382,0.74638 1.21875,1.24414 0.32494,0.49776 0.58195,1.09187 0.77149,1.7832 0.18954,0.69134 0.31108,1.48033 0.36523,2.36524 0.21662,1.76981 0.32422,4.1482 0.32422,7.13476 l 0,38.99024 c 0,2.32288 -0.18927,4.31345 -0.56836,5.97266 -0.37908,1.6592 -0.9469,2.9869 -1.70508,3.98242 -0.352,0.4701 -0.80922,0.88179 -1.37109,1.23437 -0.56186,0.35258 -1.22829,0.64581 -2,0.88086 -1.54342,0.47011 -3.5078,0.70508 -5.89062,0.70508 l 0,4.14844 4.2246,0 c 1.40804,-0.11062 2.81658,-0.16602 4.22461,-0.16602 l 3.89844,0 c 1.40804,-0.11061 2.92417,-0.16601 4.54883,-0.16601 1.51635,0 2.92488,0.0554 4.22461,0.16601 l 4.0625,0 c 1.29972,0.11061 2.59871,0.16602 3.89844,0.16602 l 4.38672,0 0,-4.14844 c -2.43699,0 -4.45516,-0.23497 -6.05274,-0.70508 -0.79879,-0.23505 -1.49114,-0.52828 -2.08008,-0.88086 -0.58893,-0.35258 -1.07404,-0.76427 -1.45312,-1.23437 -0.75817,-0.99552 -1.32599,-2.32322 -1.70508,-3.98242 -0.37909,-1.65921 -0.56836,-3.64978 -0.56836,-5.97266 l 0,-43.63672 c 1.51635,-1.32736 3.30343,-2.65506 5.36133,-3.98242 2.16621,-1.32736 4.38564,-2.54426 6.66016,-3.65039 2.1662,-0.99552 4.33183,-1.8246 6.49804,-2.48828 2.16621,-0.7743 4.06285,-1.21752 5.6875,-1.32813 1.43511,0 2.76797,0.0764 4,0.22852 1.23203,0.15209 2.36363,0.38136 3.39258,0.68554 1.02895,0.30419 1.95538,0.68435 2.78125,1.14063 0.82587,0.45628 1.55104,0.98733 2.17383,1.5957 0.62278,0.60838 1.16768,1.31329 1.63476,2.11524 0.46709,0.80194 0.85658,1.70174 1.16797,2.69726 0.31139,0.99552 0.54353,2.08825 0.69922,3.27735 0.1557,1.18909 0.23438,2.47475 0.23438,3.85742 l 0,39.48828 c 0,2.32288 -0.18928,4.31345 -0.56836,5.97266 -0.37909,1.6592 -0.94886,2.9869 -1.70703,3.98242 -0.37909,0.4701 -0.85625,0.88179 -1.43164,1.23437 -0.5754,0.35258 -1.24782,0.64581 -2.01954,0.88086 -1.54342,0.47011 -3.47992,0.70508 -5.80859,0.70508 l 0,4.14844 4.22461,0 c 1.40803,-0.11062 2.76082,-0.16602 4.06055,-0.16602 l 3.90039,0 c 1.40803,-0.11061 2.92417,-0.16601 4.54882,-0.16601 1.51635,0 2.92294,0.0554 4.22266,0.16601 l 4.0625,0 c 1.29973,0.11061 2.59871,0.16602 3.89844,0.16602 l 4.38672,0 0,-4.14844 c -2.43699,0 -4.45321,-0.23497 -6.05078,-0.70508 -0.79879,-0.23505 -1.4931,-0.52828 -2.08204,-0.88086 -0.58893,-0.35258 -1.07208,-0.76427 -1.45117,-1.23437 -0.75817,-0.99552 -1.32794,-2.32322 -1.70703,-3.98242 -0.37908,-1.65921 -0.56836,-3.64978 -0.56836,-5.97266 l 0,-39.32227 c 0,-1.71451 -0.0877,-3.36411 -0.26367,-4.94726 -0.176,-1.58316 -0.44096,-3.10093 -0.79297,-4.55274 -0.35201,-1.4518 -0.7923,-2.83775 -1.32031,-4.1582 -0.52801,-1.32045 -1.14364,-2.57458 -1.84766,-3.76367 -0.70401,-1.21675 -1.52285,-2.28275 -2.45703,-3.19531 -0.93418,-0.91257 -1.9841,-1.67288 -3.14844,-2.28125 -1.16433,-0.60838 -2.44339,-1.063 -3.83789,-1.36719 -1.39449,-0.30419 -2.90268,-0.45703 -4.52734,-0.45703 z"
       id="path4160"
       inkscape:connector-curvature="0" />
    <path
       style="opacity:1;fill:#554e44;fill-opacity:1;fill-rule:nonzero;stroke:none;stroke-width:2.5;stroke-linecap:round;stroke-linejoin:bevel;stroke-miterlimit:4;stroke-dasharray:none;stroke-opacity:1"
       d="m 85.994141,623.85633 0,4.3125 c 2.545294,0 4.778662,0.29037 6.701171,0.8711 0.961255,0.29035 1.844833,0.65429 2.650391,1.08983 0.805559,0.43555 1.533732,0.94272 2.183594,1.52345 0.64986,0.58071 1.217683,1.26176 1.705088,2.04297 0.487384,0.78121 0.893805,1.66283 1.218735,2.64453 0.32494,0.98169 0.56801,2.0639 0.73047,3.24609 0.16247,1.18218 0.24414,2.46499 0.24414,3.84766 l -2.111322,81.96484 c -0.108311,1.99104 -0.297592,3.77337 -0.568354,5.34961 -0.270783,1.57624 -0.623403,2.94597 -1.056648,4.10742 -0.379086,1.16144 -0.867183,2.19877 -1.46289,3.11133 -0.595707,0.91256 -1.299001,1.6996 -2.111328,2.36328 -0.812328,0.60837 -1.746709,1.12036 -2.802735,1.53516 -1.056026,0.4148 -2.233478,0.73385 -3.533202,0.95507 -2.49114,0.44246 -5.523415,0.71752 -9.097657,0.82813 l 0,4.14844 c 2.707759,-0.11062 5.793833,-0.16602 9.259765,-0.16602 l 10.722661,0 c 3.68255,0 7.25672,0.0554 10.72265,0.16602 l 9.09766,0 0,-4.14844 c -1.38096,-0.0553 -2.64308,-0.18233 -3.78711,-0.38281 -1.14403,-0.20049 -2.16907,-0.47465 -3.07617,-0.82032 -0.9071,-0.34566 -1.69507,-0.76305 -2.36524,-1.2539 -0.67017,-0.49085 -1.22301,-1.05343 -1.65625,-1.68946 -0.43324,-0.66368 -0.81179,-1.44501 -1.13672,-2.34374 -0.32493,-0.89874 -0.59588,-1.91504 -0.8125,-3.04883 -0.43324,-2.26758 -0.65039,-5.0051 -0.65039,-8.21289 l 1.625,-84.28907 48.90235,107.35157 2.4375,0 49.71484,-110.50391 1.13672,86.94336 c 0,3.76086 -0.27095,6.85752 -0.8125,9.29101 -0.27078,1.16145 -0.63734,2.19877 -1.09766,3.11133 -0.46032,0.91256 -1.0142,1.6996 -1.66406,2.36328 -0.64986,0.66369 -1.43483,1.23107 -2.35547,1.70118 -0.92064,0.4701 -1.97655,0.8426 -3.16797,1.11914 -2.27451,0.44245 -5.19919,0.66406 -8.77343,0.66406 l 0,4.14844 10.07226,0 13.64649,0 13.81054,0 10.56055,0 0,-4.14844 c -2.0579,0 -3.91272,-0.0688 -5.56445,-0.20703 -1.65174,-0.13827 -3.10014,-0.34456 -4.34571,-0.6211 -1.24557,-0.27653 -2.3433,-0.65098 -3.29101,-1.12109 -0.94772,-0.47011 -1.74662,-1.03749 -2.39649,-1.70117 -0.70401,-0.66368 -1.29971,-1.45072 -1.78711,-2.36328 -0.48739,-0.91256 -0.86594,-1.94989 -1.13672,-3.11133 -0.54155,-2.4335 -0.86629,-5.47475 -0.9746,-9.125 l -1.78711,-82.13086 c 0,-2.59942 0.27094,-4.85364 0.8125,-6.76172 0.27077,-0.95404 0.60946,-1.8223 1.01562,-2.60351 0.40617,-0.78121 0.87837,-1.47561 1.41992,-2.08399 0.56863,-0.60837 1.249,-1.13942 2.04102,-1.59571 0.79202,-0.45627 1.69748,-0.83643 2.71289,-1.14061 1.01541,-0.30419 2.14206,-0.53346 3.38086,-0.68555 1.2388,-0.1521 2.58859,-0.22852 4.05079,-0.22852 l 0,-4.3125 c -1.29973,0.22123 -3.08682,0.38548 -5.36134,0.4961 -2.27452,0.11061 -4.7111,0.16601 -7.31055,0.16601 l -7.31054,0 c -2.27452,-0.11062 -4.06161,-0.27487 -5.36133,-0.4961 L 159.10352,732.36805 109.38867,623.85633 c -1.19141,0.22123 -2.76135,0.38548 -4.71094,0.4961 l -6.17382,0 -6.66016,0 c -2.166208,-0.11062 -4.116643,-0.27487 -5.849609,-0.4961 z"
       id="path4156"
       inkscape:connector-curvature="0" />
    <path
       style="opacity:1;fill:#554e44;fill-opacity:1;fill-rule:nonzero;stroke:none;stroke-width:2.5;stroke-linecap:round;stroke-linejoin:bevel;stroke-miterlimit:4;stroke-dasharray:none;stroke-opacity:1"
       d="m 536.67383,622.36219 c -1.08311,0 -2.09916,0.20825 -3.04688,0.62305 -0.94771,0.4148 -1.82829,1.03563 -2.64062,1.86523 -0.75817,0.8296 -1.32599,1.7294 -1.70508,2.69727 -0.37909,0.96787 -0.56836,2.00519 -0.56836,3.11132 0,1.10614 0.18927,2.14151 0.56836,3.10938 0.37909,0.96787 0.94691,1.86766 1.70508,2.69726 0.81233,0.7743 1.69291,1.35505 2.64062,1.74219 0.94772,0.38715 1.96377,0.58008 3.04688,0.58008 1.0831,0 2.09916,-0.19293 3.04687,-0.58008 0.94772,-0.38714 1.82635,-0.96789 2.63868,-1.74219 0.81232,-0.8296 1.42196,-1.72939 1.82812,-2.69726 0.40616,-0.96787 0.60938,-2.00324 0.60938,-3.10938 0,-1.10613 -0.20322,-2.14345 -0.60938,-3.11132 -0.40616,-0.96787 -1.0158,-1.86767 -1.82812,-2.69727 -0.81233,-0.8296 -1.69096,-1.45043 -2.63868,-1.86523 -0.94771,-0.4148 -1.96377,-0.62305 -3.04687,-0.62305 z"
       id="path4154"
       inkscape:connector-curvature="0" />
    <flowRoot
       xml:space="preserve"
       id="flowRoot4154"
       style="font-style:normal;font-variant:normal;font-weight:300;font-stretch:normal;font-size:9px;line-height:125%;font-family:Roboto;-inkscape-font-specification:'Roboto Light';letter-spacing:0px;word-spacing:0px;fill:#000000;fill-opacity:1;stroke:none;stroke-width:1px;stroke-linecap:butt;stroke-linejoin:miter;stroke-opacity:1"><flowRegion
         id="flowRegion4156"><rect
           id="rect4158"
           width="200"
           height="20"
           x="400"
           y="300" /></flowRegion><flowPara
         id="flowPara4160" /></flowRoot>    <path
       style="fill:#554e44;fill-opacity:1;fill-rule:evenodd;stroke:none;stroke-width:2.44736242;stroke-linecap:butt;stroke-linejoin:miter;stroke-miterlimit:4;stroke-dasharray:none;stroke-opacity:1"
       d="m 80.016327,822.36219 231.877553,0"
       id="path4168"
       inkscape:connector-curvature="0"
       inkscape:export-xdpi="151"
       inkscape:export-ydpi="151" />
    <path
       inkscape:connector-curvature="0"
       id="path4170"
       d="m 410.47346,822.36219 191.14287,0"
       style="fill:#554e44;fill-opacity:1;fill-rule:evenodd;stroke:none;stroke-width:2.24499464;stroke-linecap:butt;stroke-linejoin:miter;stroke-miterlimit:4;stroke-dasharray:none;stroke-opacity:1"
       inkscape:export-xdpi="151"
       inkscape:export-ydpi="151" />
    <path
       inkscape:connector-curvature="0"
       id="path4267"
       d="m 80.016327,817.36219 231.877553,0"
       style="fill:#554e44;fill-opacity:1;fill-rule:evenodd;stroke:none;stroke-width:2.44736242;stroke-linecap:butt;stroke-linejoin:miter;stroke-miterlimit:4;stroke-dasharray:none;stroke-opacity:1"
       inkscape:export-xdpi="151"
       inkscape:export-ydpi="151" />
    <path
       style="fill:#554e44;fill-opacity:1;fill-rule:evenodd;stroke:none;stroke-width:2.24499464;stroke-linecap:butt;stroke-linejoin:miter;stroke-miterlimit:4;stroke-dasharray:none;stroke-opacity:1"
       d="m 410.47346,817.36219 191.14287,0"
       id="path4269"
       inkscape:connector-curvature="0"
       inkscape:export-xdpi="151"
       inkscape:export-ydpi="151" />
    <rect
       style="opacity:1;fill:#554e44;fill-opacity:1;fill-rule:nonzero;stroke:none;stroke-width:2.5;stroke-linecap:round;stroke-linejoin:bevel;stroke-miterlimit:4;stroke-dasharray:none;stroke-opacity:1"
       id="rect4215"
       width="245"
       height="2"
       x="78"
       y="820.36218" />
    <rect
       y="813.36218"
       x="78"
       height="2"
       width="245"
       id="rect4217"
       style="opacity:1;fill:#554e44;fill-opacity:1;fill-rule:nonzero;stroke:none;stroke-width:2.5;stroke-linecap:round;stroke-linejoin:bevel;stroke-miterlimit:4;stroke-dasharray:none;stroke-opacity:1" />
    <path
       inkscape:export-ydpi="151"
       inkscape:export-xdpi="151"
       inkscape:connector-curvature="0"
       id="path4219"
       d="m 395,820.36219 209.34694,0"
       style="fill:#554e44;fill-opacity:1;fill-rule:evenodd;stroke:none;stroke-width:2.44736242;stroke-linecap:butt;stroke-linejoin:miter;stroke-miterlimit:4;stroke-dasharray:none;stroke-opacity:1" />
    <path
       inkscape:export-ydpi="151"
       inkscape:export-xdpi="151"
       style="fill:#554e44;fill-opacity:1;fill-rule:evenodd;stroke:none;stroke-width:2.44736242;stroke-linecap:butt;stroke-linejoin:miter;stroke-miterlimit:4;stroke-dasharray:none;stroke-opacity:1"
       d="m 395,815.36219 209.34694,0"
       id="path4221"
       inkscape:connector-curvature="0" />
    <rect
       y="820.36218"
       x="395"
       height="2"
       width="223"
       id="rect4223"
       style="opacity:1;fill:#554e44;fill-opacity:1;fill-rule:nonzero;stroke:none;stroke-width:2.5;stroke-linecap:round;stroke-linejoin:bevel;stroke-miterlimit:4;stroke-dasharray:none;stroke-opacity:1" />
    <rect
       style="opacity:1;fill:#554e44;fill-opacity:1;fill-rule:nonzero;stroke:none;stroke-width:2.5;stroke-linecap:round;stroke-linejoin:bevel;stroke-miterlimit:4;stroke-dasharray:none;stroke-opacity:1"
       id="rect4225"
       width="223"
       height="2"
       x="395"
       y="813.36218" />
  </g>
</svg>
