<?xml version="1.0" encoding="UTF-8" standalone="no"?>
<!-- Created with Inkscape (http://www.inkscape.org/) -->

<svg
   xmlns:dc="http://purl.org/dc/elements/1.1/"
   xmlns:cc="http://creativecommons.org/ns#"
   xmlns:rdf="http://www.w3.org/1999/02/22-rdf-syntax-ns#"
   xmlns:svg="http://www.w3.org/2000/svg"
   xmlns="http://www.w3.org/2000/svg"
   xmlns:sodipodi="http://sodipodi.sourceforge.net/DTD/sodipodi-0.dtd"
   xmlns:inkscape="http://www.inkscape.org/namespaces/inkscape"
   width="400"
   height="570"
   viewBox="0 0 400 570.00001"
   id="svg2"
   version="1.1"
   inkscape:version="0.91 r13725"
   sodipodi:docname="bigFrame.svg">
  <defs
     id="defs4">
    <filter
       inkscape:collect="always"
       style="color-interpolation-filters:sRGB"
       id="filter4293"
       x="-0.092611769"
       width="1.1852235"
       y="-0.065599998"
       height="1.1312">
      <feGaussianBlur
         inkscape:collect="always"
         stdDeviation="13.120001"
         id="feGaussianBlur4295" />
    </filter>
  </defs>
  <sodipodi:namedview
     id="base"
     pagecolor="#ffffff"
     bordercolor="#666666"
     borderopacity="1.0"
     inkscape:pageopacity="0.0"
     inkscape:pageshadow="2"
     inkscape:zoom="1.52625"
     inkscape:cx="216.82755"
     inkscape:cy="262.4112"
     inkscape:document-units="px"
     inkscape:current-layer="layer1"
     showgrid="true"
     units="px"
     inkscape:snap-bbox="true"
     inkscape:bbox-paths="true"
     inkscape:bbox-nodes="true"
     inkscape:object-paths="true"
     inkscape:snap-intersection-paths="true"
     inkscape:object-nodes="true"
     inkscape:snap-smooth-nodes="true"
     inkscape:window-width="1680"
     inkscape:window-height="986"
     inkscape:window-x="0"
     inkscape:window-y="27"
     inkscape:window-maximized="1">
    <inkscape:grid
       type="xygrid"
       id="grid4136" />
  </sodipodi:namedview>
  <metadata
     id="metadata7">
    <rdf:RDF>
      <cc:Work
         rdf:about="">
        <dc:format>image/svg+xml</dc:format>
        <dc:type
           rdf:resource="http://purl.org/dc/dcmitype/StillImage" />
        <dc:title></dc:title>
      </cc:Work>
    </rdf:RDF>
  </metadata>
  <g
     inkscape:label="Layer 1"
     inkscape:groupmode="layer"
     id="layer1"
     transform="translate(0,-482.36216)">
    <path
       style="opacity:1;fill:#000000;fill-opacity:1;fill-rule:evenodd;stroke:none;stroke-width:3;stroke-linecap:round;stroke-linejoin:round;stroke-miterlimit:4;stroke-dasharray:none;stroke-opacity:1;filter:url(#filter4293)"
       d="m 30,542.36216 0,480.00004 340,0 0,-480.00004 -340,0 z m 10.625,10.43478 318.75,0 0,459.13046 -318.75,0 0,-459.13046 z"
       id="path4275"
       inkscape:connector-curvature="0"
       transform="matrix(0.94345608,0,0,0.95640697,10.997245,34.15972)" />
    <path
       style="opacity:1;fill:#388e3c;fill-opacity:1;fill-rule:evenodd;stroke:none;stroke-width:3;stroke-linecap:round;stroke-linejoin:round;stroke-miterlimit:4;stroke-dasharray:none;stroke-opacity:1"
       d="m 20,532.36216 0,500.00004 360,0 0,-500.00004 -360,0 z m 30,30 300,0 0,440.00004 -300,0 0,-440.00004 z"
       id="rect4140"
       inkscape:connector-curvature="0" />
    <path
       style="opacity:1;fill:#124016;fill-opacity:1;fill-rule:evenodd;stroke:none;stroke-width:3;stroke-linecap:round;stroke-linejoin:round;stroke-miterlimit:4;stroke-dasharray:none;stroke-opacity:1"
       d="m 40,552.36204 0,460.00006 320,0 0,-460.00006 -320,0 z m 10,10 300,0 0,440.00006 -300,0 0,-440.00006 z"
       id="rect4144"
       inkscape:connector-curvature="0" />
    <path
       style="fill:#1b5e20;fill-rule:evenodd;stroke:none;stroke-width:1px;stroke-linecap:butt;stroke-linejoin:miter;stroke-opacity:1"
       d="m 380,962.36204 10,0 0,0 c 0,30 10,30 10,30 l 0,60.00016 -60,0 c 0,0 0,-10 -30,-10 l 0,0 0,-10 70,0 z"
       id="path4153"
       inkscape:connector-curvature="0"
       sodipodi:nodetypes="ccscccscccc" />
    <path
       sodipodi:nodetypes="ccscccscccc"
       inkscape:connector-curvature="0"
       id="path4155"
       d="m 20,962.362 -10,0 0,0 c 0,30 -10,30 -10,30 l 0,60.0002 60,0 c 0,0 0,-10 30,-10 l 0,0 0,-10 -70,0 z"
       style="fill:#1b5e20;fill-rule:evenodd;stroke:none;stroke-width:1px;stroke-linecap:butt;stroke-linejoin:miter;stroke-opacity:1" />
    <path
       id="path4169"
       style="fill:#1b5e20;fill-rule:evenodd;stroke:none;stroke-width:1px;stroke-linecap:butt;stroke-linejoin:miter;stroke-opacity:1"
       d="m 340,532.36208 -30,0 -110,0 0,-50 c 0,0 5.64479,8.19601 10,10 6.1592,2.55122 20,0 20,0 l 10,10 c 0,0 5,-10 10,-10 2.35702,0 5,5 5,5 0,0 5,-5 15,0 10,5 6.88959,18.08539 15,20 3.62708,0.85624 10,-5 10,-5 0,0 7.61887,10 15,10 30,0 30,-10 30,-10 m 0,0 60,0 0,60 c 0,0 -10,0 -10,30 l -10,0 0,-70 -40,0 m -280,0 30,0 110,0 0,-50 c 0,0 -5.64479,8.19601 -10,10 -6.1592,2.55122 -20,0 -20,0 l -10,10 c 0,0 -5,-10 -10,-10 -2.35702,0 -5,5 -5,5 0,0 -5,-5 -15,0 -10,5 -6.88959,18.08539 -15,20 -3.62708,0.85624 -10,-5 -10,-5 0,0 -7.61887,10 -15,10 -30,0 -30,-10 -30,-10 m 0,0 -60,0 0,60 c 0,0 10,0 10,30 l 10,0 0,-70 40,0" />
  </g>
</svg>
