<?xml version="1.0" encoding="UTF-8" standalone="no"?>
<!-- Created with Inkscape (http://www.inkscape.org/) -->

<svg
   xmlns:dc="http://purl.org/dc/elements/1.1/"
   xmlns:cc="http://creativecommons.org/ns#"
   xmlns:rdf="http://www.w3.org/1999/02/22-rdf-syntax-ns#"
   xmlns:svg="http://www.w3.org/2000/svg"
   xmlns="http://www.w3.org/2000/svg"
   xmlns:sodipodi="http://sodipodi.sourceforge.net/DTD/sodipodi-0.dtd"
   xmlns:inkscape="http://www.inkscape.org/namespaces/inkscape"
   width="100"
   height="100"
   id="svg3010"
   version="1.1"
   inkscape:version="0.48.5 r10040"
   sodipodi:docname="chemins.svg">
  <defs
     id="defs3012" />
  <sodipodi:namedview
     id="base"
     pagecolor="#ffffff"
     bordercolor="#666666"
     borderopacity="1.0"
     inkscape:pageopacity="0.0"
     inkscape:pageshadow="2"
     inkscape:zoom="3.959798"
     inkscape:cx="-22.159039"
     inkscape:cy="76.036381"
     inkscape:document-units="px"
     inkscape:current-layer="svg3010"
     showgrid="true"
     inkscape:window-width="1680"
     inkscape:window-height="1026"
     inkscape:window-x="0"
     inkscape:window-y="24"
     inkscape:window-maximized="1">
    <inkscape:grid
       empspacing="5"
       visible="true"
       enabled="true"
       snapvisiblegridlinesonly="true"
       type="xygrid"
       id="grid3018" />
  </sodipodi:namedview>
  <metadata
     id="metadata3015">
    <rdf:RDF>
      <cc:Work
         rdf:about="">
        <dc:format>image/svg+xml</dc:format>
        <dc:type
           rdf:resource="http://purl.org/dc/dcmitype/StillImage" />
      </cc:Work>
    </rdf:RDF>
  </metadata>
  <g
     inkscape:label="Layer 1"
     inkscape:groupmode="layer"
     id="layer1"
     transform="translate(0,-952.36218)" />
  <path
     style="fill:#362d22;fill-opacity:1;stroke:none"
     d="m 52,10 c 0,0 18,20 18,30 0,10 -20,20 -20,25 0,10.671873 23,25 20,25 -6.666667,0 -18,0 -18,0 C 52,90 35,75.077478 35,65 35,55 55,45 55,40 55,27.981496 35,10 35,10 z"
     id="path3825"
     inkscape:connector-curvature="0"
     sodipodi:nodetypes="cssscsscc" />
  <path
     inkscape:connector-curvature="0"
     d="m 65,73 v -3 h -7 l 5,-5 h -3 l 5,-5 h -3 l 5,-5 5,5 h -3 l 5,5 h -3 l 5,5 h -7 v 3 h -4 z"
     id="path4-4"
     style="stroke:none;stroke-opacity:1;fill:#362d22;fill-opacity:1" />
  <path
     inkscape:connector-curvature="0"
     d="m 32,43 v -3 h -7 l 5,-5 h -3 l 5,-5 h -3 l 5,-5 5,5 h -3 l 5,5 h -3 l 5,5 h -7 v 3 h -4 z"
     id="path4-4-6"
     style="stroke:none;stroke-opacity:1;fill:#362d22;fill-opacity:1" />
  <rect
     style="fill:#362d22;fill-opacity:1;stroke:none"
     id="rect3870"
     width="5"
     height="80"
     x="10"
     y="10" />
  <rect
     style="fill:#362d22;fill-opacity:1;stroke:none"
     id="rect3870-3"
     width="5"
     height="80"
     x="85"
     y="-90"
     transform="matrix(0,1,-1,0,0,0)" />
  <rect
     style="fill:#362d22;fill-opacity:1;stroke:none"
     id="rect3870-4"
     width="5"
     height="80"
     x="85"
     y="10" />
  <rect
     transform="matrix(0,1,-1,0,0,0)"
     y="-90"
     x="10"
     height="80"
     width="5"
     id="rect3937"
     style="fill:#362d22;fill-opacity:1;stroke:none" />
</svg>
