<?xml version="1.0" encoding="UTF-8" standalone="no"?>
<!-- Created with Inkscape (http://www.inkscape.org/) -->

<svg
   xmlns:dc="http://purl.org/dc/elements/1.1/"
   xmlns:cc="http://creativecommons.org/ns#"
   xmlns:rdf="http://www.w3.org/1999/02/22-rdf-syntax-ns#"
   xmlns:svg="http://www.w3.org/2000/svg"
   xmlns="http://www.w3.org/2000/svg"
   xmlns:sodipodi="http://sodipodi.sourceforge.net/DTD/sodipodi-0.dtd"
   xmlns:inkscape="http://www.inkscape.org/namespaces/inkscape"
   width="200"
   height="300"
   viewBox="0 0 708.66142 0"
   id="svg2"
   version="1.1"
   inkscape:version="0.91 r13725"
   sodipodi:docname="feuille.svg">
  <defs
     id="defs4" />
  <sodipodi:namedview
     id="base"
     pagecolor="#ffffff"
     bordercolor="#666666"
     borderopacity="1.0"
     inkscape:pageopacity="0.0"
     inkscape:pageshadow="2"
     inkscape:zoom="3.959798"
     inkscape:cx="53.693733"
     inkscape:cy="105.24158"
     inkscape:document-units="px"
     inkscape:current-layer="layer1"
     showgrid="true"
     units="px"
     inkscape:snap-bbox="true"
     inkscape:bbox-paths="true"
     inkscape:snap-bbox-edge-midpoints="true"
     inkscape:bbox-nodes="true"
     inkscape:object-paths="true"
     inkscape:snap-intersection-paths="true"
     inkscape:object-nodes="true"
     inkscape:snap-smooth-nodes="true"
     inkscape:window-width="1680"
     inkscape:window-height="986"
     inkscape:window-x="0"
     inkscape:window-y="27"
     inkscape:window-maximized="1">
    <inkscape:grid
       type="xygrid"
       id="grid4136" />
  </sodipodi:namedview>
  <metadata
     id="metadata7">
    <rdf:RDF>
      <cc:Work
         rdf:about="">
        <dc:format>image/svg+xml</dc:format>
        <dc:type
           rdf:resource="http://purl.org/dc/dcmitype/StillImage" />
        <dc:title></dc:title>
      </cc:Work>
    </rdf:RDF>
  </metadata>
  <g
     inkscape:label="Layer 1"
     inkscape:groupmode="layer"
     id="layer1"
     transform="translate(0,-852.36204)">
    <path
       style="fill:#ffab00;fill-opacity:1;fill-rule:evenodd;stroke:none;stroke-width:1px;stroke-linecap:butt;stroke-linejoin:miter;stroke-opacity:1;opacity:1"
       d="m 65,1057.362 5.73374,0 -22.934959,78.3611 -9.556233,0 z"
       id="path4163"
       inkscape:connector-curvature="0"
       sodipodi:nodetypes="ccccc" />
    <path
       style="fill:#ffc107;fill-opacity:1;fill-rule:evenodd;stroke:none;stroke-width:1px;stroke-linecap:butt;stroke-linejoin:miter;stroke-opacity:1;opacity:1"
       d="m 144.72447,867.66355 c 0,0 -39.58418,23.11285 -57.132088,37.69486 -24.129006,20.05078 -55.531788,40.8051 -65.337009,67.74474 -8.297222,22.79641 -10.402345,53.18855 4.061399,72.66465 8.955171,12.0583 27.515265,11.2322 42.166877,15.6484 l -0.209042,-0.7167 c 0.76023,-8.8729 1.890511,-17.6183 3.367079,-26.2461 1.476568,-8.6278 3.300457,-17.1367 5.442573,-25.5368 2.142115,-8.4001 4.60441,-16.69002 7.361286,-24.87979 2.756874,-8.18976 5.806102,-16.28196 9.126948,-24.27879 3.320846,-7.99683 6.912997,-15.90134 10.747027,-23.7226 3.83403,-7.82126 7.91016,-15.55933 12.20659,-23.22239 4.29642,-7.66309 8.81255,-15.24846 13.52058,-22.77072 4.70803,-7.52226 9.60892,-14.97993 14.67778,-22.37876 z"
       id="path4263"
       inkscape:connector-curvature="0" />
    <path
       style="fill:#ffab00;fill-opacity:1;fill-rule:evenodd;stroke:none;stroke-width:1px;stroke-linecap:butt;stroke-linejoin:miter;stroke-opacity:1;opacity:1"
       d="m 144.72447,867.66355 c -5.06886,7.39883 -9.96975,14.8565 -14.67778,22.37876 -4.70803,7.52226 -9.22416,15.10763 -13.52058,22.77072 -4.29643,7.66306 -8.37256,15.40113 -12.20659,23.22239 -3.83403,7.82126 -7.426181,15.72577 -10.747027,23.7226 -3.320846,7.99683 -6.370074,16.08903 -9.126948,24.27879 -2.756876,8.18977 -5.219171,16.47969 -7.361286,24.87979 -2.142116,8.4001 -3.966005,16.909 -5.442573,25.5368 -1.476568,8.6278 -2.606849,17.3732 -3.367079,26.2461 l 0.209042,0.7167 c 0.884789,0.2667 1.880151,0.3841 2.732485,0.6943 14.966528,5.4472 29.405966,20.0338 44.899366,16.3426 23.59888,-5.6225 42.41539,-29.9537 49.81933,-53.0557 16.19115,-50.51997 -21.21036,-157.73385 -21.21036,-157.73385 z"
       id="path4155"
       inkscape:connector-curvature="0" />
    <path
       style="opacity:1;fill:#ffd740;fill-opacity:1;fill-rule:evenodd;stroke:none;stroke-width:1px;stroke-linecap:butt;stroke-linejoin:miter;stroke-opacity:1"
       d="m 130.02803,890.07217 c -7.03306,4.4066 -29.0799,18.33566 -41.375504,28.76576 -19.070407,16.177 -44.261873,32.52628 -52.077736,54.00018 -6.613817,18.17131 -8.292801,42.39509 3.236428,57.91969 6.580992,8.8615 19.628023,9.0477 30.796453,11.755 0.387522,-2.6719 0.580606,-5.4101 1.034015,-8.0594 1.476568,-8.6278 3.300457,-17.1367 5.442573,-25.5368 2.142115,-8.4001 4.60441,-16.69002 7.361286,-24.87979 2.756874,-8.18976 5.806102,-16.28196 9.126948,-24.27879 3.320846,-7.99683 6.912997,-15.90134 10.747027,-23.7226 3.83403,-7.82126 7.91016,-15.55933 12.20659,-23.22239 4.29071,-7.6529 8.80066,-15.22842 13.50192,-22.74086 z"
       id="path4268"
       inkscape:connector-curvature="0" />
    <path
       style="opacity:1;fill:#ffd740;fill-opacity:1;fill-rule:evenodd;stroke:none;stroke-width:1px;stroke-linecap:butt;stroke-linejoin:miter;stroke-opacity:1"
       d="m 130.02803,890.07217 c -4.70126,7.51244 -9.21121,15.08796 -13.50192,22.74086 -4.29643,7.66306 -8.37256,15.40113 -12.20659,23.22239 -3.83403,7.82126 -7.426181,15.72577 -10.747027,23.7226 -3.320846,7.99683 -6.370074,16.08903 -9.126948,24.27879 -2.756876,8.18977 -5.219171,16.47969 -7.361286,24.87979 -2.142116,8.4001 -3.966005,16.909 -5.442573,25.5368 -0.453409,2.6493 -0.646493,5.3875 -1.034015,8.0594 1.677316,0.4065 3.43688,0.7059 4.994624,1.2729 11.930003,4.3419 23.437372,15.9702 35.787335,13.0278 18.81097,-4.4817 33.72078,-23.9037 39.71064,-42.2901 13.29226,-40.80151 -15.93203,-127.74738 -15.93203,-127.74738 0,0 -3.95911,2.55613 -5.14021,3.29615 z"
       id="path4218"
       inkscape:connector-curvature="0" />
    <path
       style="opacity:1;fill:#ffe57f;fill-opacity:1;fill-rule:evenodd;stroke:none;stroke-width:1px;stroke-linecap:butt;stroke-linejoin:miter;stroke-opacity:1"
       d="m 115.44731,914.86613 c -8.18981,5.72026 -18.580048,13.16147 -25.585323,19.29909 -13.365349,11.70994 -31.454313,23.11187 -37.008004,38.37051 -4.699558,12.91193 -5.889083,30.12767 2.303202,41.15897 4.176834,5.6242 11.930215,6.4469 19.228185,7.8839 0.901658,-4.2199 1.63675,-8.4969 2.698889,-12.662 2.142115,-8.4001 4.60441,-16.69002 7.361286,-24.87979 2.756874,-8.18976 5.806102,-16.28196 9.126948,-24.27879 3.320846,-7.99683 6.912997,-15.90134 10.747027,-23.7226 3.49509,-7.12985 7.24658,-14.17155 11.12779,-21.16929 z"
       id="path4271"
       inkscape:connector-curvature="0" />
    <path
       style="opacity:1;fill:#ffe57f;fill-opacity:1;fill-rule:evenodd;stroke:none;stroke-width:1px;stroke-linecap:butt;stroke-linejoin:miter;stroke-opacity:1"
       d="m 115.44731,914.86613 c -3.88121,6.99774 -7.6327,14.03944 -11.12779,21.16929 -3.83403,7.82126 -7.426181,15.72577 -10.747027,23.7226 -3.320846,7.99683 -6.370074,16.08903 -9.126948,24.27879 -2.756876,8.18977 -5.219171,16.47969 -7.361286,24.87979 -1.062139,4.1651 -1.797231,8.4421 -2.698889,12.662 2.099652,0.4135 4.306373,0.6806 6.200352,1.37 8.47706,3.0853 16.656792,11.3483 25.432268,9.2576 13.36645,-3.1845 23.74618,-17.057 28.21702,-30.0499 10.27647,-29.86465 -8.62301,-94.35657 -8.62301,-94.35657 0,0 -5.33419,3.69245 -10.16469,7.0664 z"
       id="path4220"
       inkscape:connector-curvature="0" />
  </g>
</svg>
