<?xml version="1.0" encoding="UTF-8" standalone="no"?>
<!-- Created with Inkscape (http://www.inkscape.org/) -->

<svg
   xmlns:dc="http://purl.org/dc/elements/1.1/"
   xmlns:cc="http://creativecommons.org/ns#"
   xmlns:rdf="http://www.w3.org/1999/02/22-rdf-syntax-ns#"
   xmlns:svg="http://www.w3.org/2000/svg"
   xmlns="http://www.w3.org/2000/svg"
   xmlns:sodipodi="http://sodipodi.sourceforge.net/DTD/sodipodi-0.dtd"
   xmlns:inkscape="http://www.inkscape.org/namespaces/inkscape"
   width="200"
   height="300"
   viewBox="0 0 200 300.00001"
   id="svg2"
   version="1.1"
   inkscape:version="0.91 r13725"
   sodipodi:docname="rose.svg">
  <defs
     id="defs4" />
  <sodipodi:namedview
     id="base"
     pagecolor="#ffffff"
     bordercolor="#666666"
     borderopacity="1.0"
     inkscape:pageopacity="0.0"
     inkscape:pageshadow="2"
     inkscape:zoom="1.9033195"
     inkscape:cx="-37.294724"
     inkscape:cy="153.87563"
     inkscape:document-units="px"
     inkscape:current-layer="layer1"
     showgrid="true"
     units="px"
     inkscape:snap-bbox="true"
     inkscape:bbox-paths="true"
     inkscape:bbox-nodes="true"
     inkscape:object-paths="true"
     inkscape:snap-intersection-paths="true"
     inkscape:object-nodes="true"
     inkscape:snap-global="true"
     inkscape:window-width="1680"
     inkscape:window-height="986"
     inkscape:window-x="0"
     inkscape:window-y="27"
     inkscape:window-maximized="1">
    <inkscape:grid
       type="xygrid"
       id="grid4136" />
  </sodipodi:namedview>
  <metadata
     id="metadata7">
    <rdf:RDF>
      <cc:Work
         rdf:about="">
        <dc:format>image/svg+xml</dc:format>
        <dc:type
           rdf:resource="http://purl.org/dc/dcmitype/StillImage" />
        <dc:title />
      </cc:Work>
    </rdf:RDF>
  </metadata>
  <g
     inkscape:label="Layer 1"
     inkscape:groupmode="layer"
     id="layer1"
     transform="translate(0,-752.36216)">
    <path
       style="fill:none;fill-rule:evenodd;stroke:#685131;stroke-width:3;stroke-linecap:round;stroke-linejoin:round;stroke-miterlimit:4;stroke-dasharray:none;stroke-opacity:1"
       d="m 94.950995,854.7779 c 0,0 -11.905085,53.19342 -10,80 2.694197,37.91024 29.999995,110 29.999995,110"
       id="path4383"
       inkscape:connector-curvature="0"
       sodipodi:nodetypes="cac" />
    <g
       id="g4374"
       transform="matrix(0.9940488,0.10893569,-0.10893569,0.9940488,-18.751065,78.995571)">
      <path
         inkscape:connector-curvature="0"
         id="path4356"
         d="m 202.82721,752.82217 30.34273,-42.90946 c -8.18018,-6.03295 -14.24132,-13.84554 -16.84491,-23.0491 -1.01085,-3.67529 -1.45525,-7.45693 -1.32503,-11.27276 -27.9676,7.40455 -45.11365,29.86399 -39.11384,51.23658 2.6106,9.24313 8.59739,17.3039 18.00177,22.15986 2.80455,1.44812 5.81341,2.71722 8.93928,3.83488 z"
         style="opacity:0.83800001;fill:#f44336;fill-opacity:1;fill-rule:evenodd;stroke:none;stroke-width:4;stroke-linecap:butt;stroke-linejoin:miter;stroke-miterlimit:4;stroke-dasharray:none;stroke-opacity:1" />
      <path
         inkscape:connector-curvature="0"
         id="path4361"
         d="m 208.04417,766.80884 c 12.8276,-1.32953 25.49363,-6.22296 35.12693,-16.2894 14.51604,-15.19331 19.10638,-37.33023 11.8289,-57.04293 -14.37466,10.7793 -31.96365,14.78706 -48.69045,12.26989 -1.20048,-0.18065 -2.36461,-0.56371 -3.55469,-0.8115 l 5.28931,61.87394 z"
         style="opacity:0.85399996;fill:#f44336;fill-opacity:1;fill-rule:evenodd;stroke:none;stroke-width:4;stroke-linecap:butt;stroke-linejoin:miter;stroke-miterlimit:4;stroke-dasharray:none;stroke-opacity:1" />
      <path
         inkscape:connector-curvature="0"
         id="path4337"
         d="m 202.77354,667.21327 a 55,55 0 0 0 -32.49219,48.3533 55,55 0 0 0 53.17083,56.77026 55,55 0 0 0 56.50537,-49.97467 65.000008,65.000008 0 0 1 -14.89069,1.31033 65.000008,65.000008 0 0 1 -62.29332,-56.45922 z"
         style="opacity:1;fill:#b71c1c;fill-opacity:1;fill-rule:evenodd;stroke:none;stroke-width:4;stroke-linecap:butt;stroke-linejoin:miter;stroke-miterlimit:4;stroke-dasharray:none;stroke-opacity:1" />
      <path
         inkscape:connector-curvature="0"
         id="path4339"
         d="m 274.99936,712.09762 a 55,55 0 0 1 -30.61455,49.56343 55,55 0 0 1 -73.66352,-24.97372 55,55 0 0 1 22.17238,-72.10208 65.000008,65.000008 0 0 0 4.95735,14.10227 65.000008,65.000008 0 0 0 77.14834,33.4101 z"
         style="opacity:0.822;fill:#b71c1c;fill-opacity:1;fill-rule:evenodd;stroke:none;stroke-width:4;stroke-linecap:butt;stroke-linejoin:miter;stroke-miterlimit:4;stroke-dasharray:none;stroke-opacity:1" />
      <path
         style="opacity:0.85399996;fill:#b71c1c;fill-opacity:1;fill-rule:evenodd;stroke:none;stroke-width:4;stroke-linecap:butt;stroke-linejoin:miter;stroke-miterlimit:4;stroke-dasharray:none;stroke-opacity:1"
         d="m 268.03112,697.77791 a 55,55 0 0 1 -16.64469,55.82776 55,55 0 0 1 -77.62599,-4.91992 55,55 0 0 1 2.62211,-75.38865 65.000008,65.000008 0 0 0 8.46019,12.32374 65.000008,65.000008 0 0 0 83.18838,12.15707 z"
         id="path4331"
         inkscape:connector-curvature="0" />
      <path
         inkscape:connector-curvature="0"
         id="path4343"
         d="m 271.64706,719.09334 a 50.835772,43.320427 8.7368537 0 1 -26.14305,39.12025 50.835772,43.320427 8.7368537 0 1 -68.82921,-19.96565 50.835772,43.320427 8.7368537 0 1 17.4466,-56.9737 60.078647,51.196874 8.7368537 0 0 5.14227,11.16984 60.078647,51.196874 8.7368537 0 0 72.38339,26.64926 z"
         style="opacity:0.51399997;fill:#ff1744;fill-opacity:1;fill-rule:evenodd;stroke:none;stroke-width:4;stroke-linecap:butt;stroke-linejoin:miter;stroke-miterlimit:4;stroke-dasharray:none;stroke-opacity:1" />
      <path
         style="opacity:0.722;fill:#ff5252;fill-opacity:1;fill-rule:evenodd;stroke:none;stroke-width:4;stroke-linecap:butt;stroke-linejoin:miter;stroke-miterlimit:4;stroke-dasharray:none;stroke-opacity:1"
         d="m 255.48462,725.87467 a 37.600868,29.930574 6.0501412 0 1 -19.35866,26.99811 37.600868,29.930574 6.0501412 0 1 -50.96734,-13.77892 37.600868,29.930574 6.0501412 0 1 12.91904,-39.31933 44.437393,35.372499 6.0501422 0 0 3.80779,7.70867 44.437393,35.372499 6.0501422 0 0 53.59917,18.39147 z"
         id="path4352"
         inkscape:connector-curvature="0" />
    </g>
    <path
       style="fill:#685131;fill-opacity:1;fill-rule:evenodd;stroke:none;stroke-width:1px;stroke-linecap:butt;stroke-linejoin:miter;stroke-opacity:1"
       d="m 84.950995,939.7779 -10,-5 c 0,0 -9.20044,-27.82894 -19.48898,-37.41483 -10.77064,-10.03506 -40.51102,-17.58517 -40.51102,-17.58517 0,0 -2.9082,36.93019 7.92585,49.76799 17.07415,20.23201 52.07415,10.23201 52.07415,10.23201 l 10,5 z"
       id="path4385"
       inkscape:connector-curvature="0"
       sodipodi:nodetypes="ccacsccc" />
    <path
       sodipodi:nodetypes="ccacsccc"
       inkscape:connector-curvature="0"
       id="path4387"
       d="m 98.667093,994.0433 7.999997,-4 c 0,0 7.36035,-22.26315 15.59118,-29.93186 8.61651,-8.02805 32.40882,-14.06814 32.40882,-14.06814 0,0 2.32656,29.54415 -6.34068,39.81439 -13.65932,16.18561 -41.65932,8.18561 -41.65932,8.18561 l -7.999997,4.00002 z"
       style="fill:#685131;fill-opacity:1;fill-rule:evenodd;stroke:none;stroke-width:1px;stroke-linecap:butt;stroke-linejoin:miter;stroke-opacity:1" />
    <path
       style="fill:#c62828;fill-opacity:1;fill-rule:evenodd;stroke:none;stroke-width:1px;stroke-linecap:butt;stroke-linejoin:miter;stroke-opacity:1"
       d="m 64.820135,920.02204 c -3.3758,-8.15269 -8.04017,-16.47624 -11.49609,-19.92773 -2.1663,-2.01835 -5.29226,-3.90863 -8.75782,-5.61133 l -5.83984,16.04101 26.09375,9.49805 z"
       id="path4408"
       inkscape:connector-curvature="0" />
    <path
       style="fill:#f44336;fill-opacity:1;fill-rule:evenodd;stroke:none;stroke-width:1px;stroke-linecap:butt;stroke-linejoin:miter;stroke-opacity:1"
       d="m 64.820135,920.02204 -26.09375,-9.49805 -7.04297,19.35352 c 14.48966,10.59353 37.23242,4.14844 37.23242,4.14844 -0.21612,-3.70267 -1.95293,-8.82904 -4.0957,-14.00391 z"
       id="path4403"
       inkscape:connector-curvature="0" />
    <path
       style="fill:#ff8a80;fill-opacity:1;fill-rule:evenodd;stroke:none;stroke-width:1px;stroke-linecap:butt;stroke-linejoin:miter;stroke-opacity:1"
       d="m 31.683415,929.87751 12.88281,-35.39453 c -10.31882,-5.06986 -23.65039,-8.45703 -23.65039,-8.45703 0,0 -2.32739,29.54226 6.33985,39.8125 1.34107,1.5891 2.85027,2.88576 4.42773,4.03906 z"
       id="path4395"
       inkscape:connector-curvature="0" />
    <path
       style="fill:#d32f2f;fill-opacity:1;fill-rule:evenodd;stroke:none;stroke-width:1px;stroke-linecap:butt;stroke-linejoin:miter;stroke-opacity:1"
       d="m 111.73615,987.63923 c -0.0495,0.60461 -0.23633,1.19954 -0.23633,1.80664 0,0 22.40067,6.40161 33.32812,-6.54688 1.73654,-2.0577 2.77433,-5.21134 3.5586,-8.59961 l -36.65039,13.33985 z"
       id="path4426"
       inkscape:connector-curvature="0" />
    <path
       style="fill:#f44336;fill-opacity:1;fill-rule:evenodd;stroke:none;stroke-width:1px;stroke-linecap:butt;stroke-linejoin:miter;stroke-opacity:1"
       d="m 111.73615,987.63923 36.65039,-13.33985 c 0.20642,-0.89181 0.49572,-1.70185 0.65625,-2.6289 l -28.23047,-4.97656 c -4.40093,6.25225 -8.46645,13.49481 -9.07617,20.94531 z"
       id="path4421"
       inkscape:connector-curvature="0" />
    <path
       style="fill:#ff8a80;fill-opacity:1;fill-rule:evenodd;stroke:none;stroke-width:1px;stroke-linecap:butt;stroke-linejoin:miter;stroke-opacity:1"
       d="m 120.81232,966.69392 28.23047,4.97656 c 1.66477,-9.61432 0.85742,-20.62305 0.85742,-20.62305 0,0 -19.03257,4.83147 -25.92578,11.25391 -1.03183,1.37278 -2.10246,2.88716 -3.16211,4.39258 z"
       id="path4410"
       inkscape:connector-curvature="0" />
  </g>
</svg>
