<?xml version="1.0" encoding="UTF-8" standalone="no"?>
<!-- Created with Inkscape (http://www.inkscape.org/) -->

<svg
   xmlns:dc="http://purl.org/dc/elements/1.1/"
   xmlns:cc="http://creativecommons.org/ns#"
   xmlns:rdf="http://www.w3.org/1999/02/22-rdf-syntax-ns#"
   xmlns:svg="http://www.w3.org/2000/svg"
   xmlns="http://www.w3.org/2000/svg"
   xmlns:sodipodi="http://sodipodi.sourceforge.net/DTD/sodipodi-0.dtd"
   xmlns:inkscape="http://www.inkscape.org/namespaces/inkscape"
   width="400"
   height="80"
   viewBox="0 0 400 80"
   id="svg2"
   version="1.1"
   inkscape:version="0.91 r13725"
   sodipodi:docname="topFrame.svg">
  <defs
     id="defs4" />
  <sodipodi:namedview
     id="base"
     pagecolor="#ffffff"
     bordercolor="#666666"
     borderopacity="1.0"
     inkscape:pageopacity="0.0"
     inkscape:pageshadow="2"
     inkscape:zoom="1.4"
     inkscape:cx="130.38194"
     inkscape:cy="31.025838"
     inkscape:document-units="px"
     inkscape:current-layer="layer1"
     showgrid="true"
     units="px"
     inkscape:snap-bbox="true"
     inkscape:bbox-paths="true"
     inkscape:bbox-nodes="true"
     inkscape:object-paths="true"
     inkscape:snap-intersection-paths="true"
     inkscape:object-nodes="true"
     inkscape:snap-smooth-nodes="true"
     inkscape:window-width="1680"
     inkscape:window-height="986"
     inkscape:window-x="0"
     inkscape:window-y="27"
     inkscape:window-maximized="1">
    <inkscape:grid
       type="xygrid"
       id="grid4136" />
  </sodipodi:namedview>
  <metadata
     id="metadata7">
    <rdf:RDF>
      <cc:Work
         rdf:about="">
        <dc:format>image/svg+xml</dc:format>
        <dc:type
           rdf:resource="http://purl.org/dc/dcmitype/StillImage" />
        <dc:title></dc:title>
      </cc:Work>
    </rdf:RDF>
  </metadata>
  <g
     inkscape:label="Layer 1"
     inkscape:groupmode="layer"
     id="layer1"
     transform="translate(0,-972.3622)">
    <path
       style="fill:#1b5e20;fill-rule:evenodd;stroke:none;stroke-width:1px;stroke-linecap:butt;stroke-linejoin:miter;stroke-opacity:1"
       d="m 400,1052.3622 0,-50 -60,0 c 0,0 0,10 -30,10 -7.38113,0 -15,-10 -15,-10 0,0 -6.37292,5.8562 -10,5 -8.11041,-1.9146 -5,-15 -15,-20 -10,-5 -15,0 -15,0 0,0 -2.64298,-5 -5,-5 -5,0 -10,10 -10,10 l -10,-10 c 0,0 -13.8408,2.55122 -20,0 -4.35521,-1.80399 -10,-10 -10,-10 0,0 -5.64479,8.19601 -10,10 -6.1592,2.55122 -20,0 -20,0 l -10,10 c 0,0 -5,-10 -10,-10 -2.35702,0 -5,5 -5,5 0,0 -5,-5 -15,0 -10,5 -6.88959,18.0854 -15,20 -3.62708,0.8562 -10,-5 -10,-5 0,0 -7.61887,10 -15,10 -30,0 -30,-10 -30,-10 l -60,0 0,50"
       id="path4165"
       inkscape:connector-curvature="0"
       sodipodi:nodetypes="cccscsscsccscsccscsscsccc" />
    <path
       style="opacity:1;fill:#388e3c;fill-opacity:1;fill-rule:evenodd;stroke:none;stroke-width:3;stroke-linecap:round;stroke-linejoin:round;stroke-miterlimit:4;stroke-dasharray:none;stroke-opacity:1"
       d="m 380,1052.3622 0,-30 -360,0 0,30"
       id="path4701"
       inkscape:connector-curvature="0" />
    <path
       style="opacity:1;fill:#1b5e20;fill-opacity:1;fill-rule:evenodd;stroke:none;stroke-width:3;stroke-linecap:round;stroke-linejoin:round;stroke-miterlimit:4;stroke-dasharray:none;stroke-opacity:1"
       d="m 360,1052.0051 0,-9.643 -320,0 0,10.0001"
       id="path4742"
       inkscape:connector-curvature="0" />
  </g>
</svg>
